G04*
G04 #@! TF.GenerationSoftware,Altium Limited,Altium Designer,21.8.1 (53)*
G04*
G04 Layer_Color=65535*
%FSAX44Y44*%
%MOMM*%
G71*
G04*
G04 #@! TF.SameCoordinates,34400FFA-6FB8-4BC9-BD0D-8C69DA3767B6*
G04*
G04*
G04 #@! TF.FilePolarity,Positive*
G04*
G01*
G75*
%ADD10C,0.2000*%
%ADD11C,0.1500*%
%ADD12C,0.1270*%
%ADD13C,0.1524*%
%ADD14C,0.2540*%
%ADD15C,0.0762*%
G36*
X00381940Y00263845D02*
X00379400D01*
Y00267655D01*
X00381940D01*
Y00263845D01*
D02*
G37*
G36*
X00460060Y00322345D02*
X00462600D01*
Y00326155D01*
X00460060D01*
Y00322345D01*
D02*
G37*
D10*
X00549000Y00146500D02*
G03*
X00549000Y00146500I-00001000J00000000D01*
G01*
X00272000Y00086000D02*
G03*
X00272000Y00086000I-00001000J00000000D01*
G01*
X00350350Y00000000D02*
Y00007500D01*
X00255650Y00000000D02*
X00350350D01*
X00255650D02*
Y00007500D01*
X00350350Y00034500D02*
Y00052500D01*
X00255650Y00034500D02*
Y00052500D01*
X00549000Y00294500D02*
X00552000D01*
X00549000Y00241500D02*
X00552000D01*
X00518000Y00294500D02*
X00521000D01*
X00518000Y00241500D02*
X00521000D01*
X00552000D02*
Y00294500D01*
X00518000Y00241500D02*
Y00294500D01*
X00198000Y00595000D02*
Y00605000D01*
Y00600000D02*
X00205000Y00596000D01*
X00198000Y00600000D02*
X00205000Y00605000D01*
Y00596000D02*
Y00605000D01*
X00196000Y00600000D02*
X00198000D01*
X00205000D02*
X00208000D01*
X00283000Y00680100D02*
X00317000D01*
X00283000Y00596100D02*
X00317000D01*
X00283000D02*
Y00680100D01*
X00317000Y00596100D02*
Y00680100D01*
X00199500Y00225000D02*
Y00234000D01*
X00192250Y00225000D02*
X00199500D01*
X00170500D02*
Y00234000D01*
Y00225000D02*
X00177750D01*
X00182000Y00239000D02*
X00188000D01*
X00182000Y00166500D02*
X00191000D01*
Y00159250D02*
Y00166500D01*
X00182000Y00137500D02*
X00191000D01*
Y00144750D01*
X00177000Y00149000D02*
Y00155000D01*
X00068500Y00233000D02*
Y00242000D01*
X00075750D01*
X00097500Y00233000D02*
Y00242000D01*
X00090250D02*
X00097500D01*
X00080000Y00228000D02*
X00086000D01*
X00077000Y00138500D02*
X00086000D01*
X00077000D02*
Y00145750D01*
Y00167500D02*
X00086000D01*
X00077000Y00160250D02*
Y00167500D01*
X00091000Y00150000D02*
Y00156000D01*
X00033500Y00289000D02*
X00073500D01*
X00033500D02*
Y00369000D01*
X00073500D01*
Y00329000D02*
Y00369000D01*
Y00289000D02*
Y00329000D01*
X00193000Y00456000D02*
Y00466000D01*
Y00461000D02*
X00200000Y00457000D01*
X00193000Y00461000D02*
X00200000Y00466000D01*
Y00457000D02*
Y00466000D01*
X00191000Y00461000D02*
X00193000D01*
X00200000D02*
X00203000D01*
X00140000Y00456000D02*
Y00466000D01*
Y00461000D02*
X00147000Y00457000D01*
X00140000Y00461000D02*
X00147000Y00466000D01*
Y00457000D02*
Y00466000D01*
X00138000Y00461000D02*
X00140000D01*
X00147000D02*
X00150000D01*
X00041000Y00456000D02*
Y00466000D01*
X00034000Y00465000D02*
X00041000Y00461000D01*
X00034000Y00456000D02*
X00041000Y00461000D01*
X00034000Y00456000D02*
Y00465000D01*
X00041000Y00461000D02*
X00043000D01*
X00031000D02*
X00034000D01*
X00094000Y00456000D02*
Y00466000D01*
X00087000Y00465000D02*
X00094000Y00461000D01*
X00087000Y00456000D02*
X00094000Y00461000D01*
X00087000Y00456000D02*
Y00465000D01*
X00094000Y00461000D02*
X00096000D01*
X00084000D02*
X00087000D01*
X00182000Y00199000D02*
Y00209000D01*
X00175000Y00208000D02*
X00182000Y00204000D01*
X00175000Y00199000D02*
X00182000Y00204000D01*
X00175000Y00199000D02*
Y00208000D01*
X00182000Y00204000D02*
X00184000D01*
X00172000D02*
X00175000D01*
X00174000Y00175000D02*
Y00185000D01*
Y00180000D02*
X00181000Y00176000D01*
X00174000Y00180000D02*
X00181000Y00185000D01*
Y00176000D02*
Y00185000D01*
X00172000Y00180000D02*
X00174000D01*
X00181000D02*
X00184000D01*
X00088000Y00199000D02*
Y00209000D01*
Y00204000D02*
X00095000Y00200000D01*
X00088000Y00204000D02*
X00095000Y00209000D01*
Y00200000D02*
Y00209000D01*
X00086000Y00204000D02*
X00088000D01*
X00095000D02*
X00098000D01*
X00096000Y00175000D02*
Y00185000D01*
X00089000Y00184000D02*
X00096000Y00180000D01*
X00089000Y00175000D02*
X00096000Y00180000D01*
X00089000Y00175000D02*
Y00184000D01*
X00096000Y00180000D02*
X00098000D01*
X00086000D02*
X00089000D01*
X00164100Y00037000D02*
Y00071000D01*
X00080100Y00037000D02*
Y00071000D01*
X00164100D01*
X00080100Y00037000D02*
X00164100D01*
D11*
X00542180Y00187810D02*
Y00189080D01*
X00519320D02*
X00542180D01*
X00519320Y00187810D02*
Y00189080D01*
Y00178920D02*
Y00180190D01*
Y00178920D02*
X00542180D01*
Y00180190D01*
X00530750Y00178920D02*
Y00189080D01*
X00206920Y00679000D02*
X00217080D01*
X00215810Y00690430D02*
X00217080D01*
Y00667570D02*
Y00690430D01*
X00215810Y00667570D02*
X00217080D01*
X00206920D02*
X00208190D01*
X00206920D02*
Y00690430D01*
X00208190D01*
X00531000Y00194920D02*
Y00205080D01*
X00519570Y00203810D02*
Y00205080D01*
X00542430D01*
Y00203810D02*
Y00205080D01*
Y00194920D02*
Y00196190D01*
X00519570Y00194920D02*
X00542430D01*
X00519570D02*
Y00196190D01*
X00531000Y00162920D02*
Y00173080D01*
X00542430Y00162920D02*
Y00164190D01*
X00519570Y00162920D02*
X00542430D01*
X00519570D02*
Y00164190D01*
Y00171810D02*
Y00173080D01*
X00542430D01*
Y00171810D02*
Y00173080D01*
X00303000Y00129920D02*
Y00140080D01*
X00291570Y00138810D02*
Y00140080D01*
X00314430D01*
Y00138810D02*
Y00140080D01*
Y00129920D02*
Y00131190D01*
X00291570Y00129920D02*
X00314430D01*
X00291570D02*
Y00131190D01*
X00302920Y00113000D02*
X00313080D01*
X00302920Y00101570D02*
X00304190D01*
X00302920D02*
Y00124430D01*
X00304190D01*
X00311810D02*
X00313080D01*
Y00101570D02*
Y00124430D01*
X00311810Y00101570D02*
X00313080D01*
X00479000Y00291000D02*
Y00305000D01*
X00491700Y00291000D02*
Y00292920D01*
X00466300Y00291000D02*
X00491700D01*
X00466300D02*
Y00292920D01*
Y00303080D02*
Y00305000D01*
X00491700D01*
Y00303080D02*
Y00305000D01*
X00318750Y00244000D02*
Y00247000D01*
Y00244000D02*
X00346750D01*
Y00247000D01*
Y00255000D02*
Y00258000D01*
X00318750D02*
X00346750D01*
X00318750Y00255000D02*
Y00258000D01*
X00332750Y00244000D02*
Y00258000D01*
X00346750Y00237000D02*
Y00240000D01*
X00318750D02*
X00346750D01*
X00318750Y00237000D02*
Y00240000D01*
Y00226000D02*
Y00229000D01*
Y00226000D02*
X00346750D01*
Y00229000D01*
X00332750Y00226000D02*
Y00240000D01*
X00279000Y00107000D02*
X00281000D01*
X00279000D02*
Y00127000D01*
X00281000D01*
X00287000D02*
X00289000D01*
Y00107000D02*
Y00127000D01*
X00287000Y00107000D02*
X00289000D01*
X00379600Y00232000D02*
Y00234000D01*
X00399600D01*
Y00232000D02*
Y00234000D01*
Y00224000D02*
Y00226000D01*
X00379600Y00224000D02*
X00399600D01*
X00379600D02*
Y00226000D01*
X00317000Y00103000D02*
X00319000D01*
X00317000D02*
Y00123000D01*
X00319000D01*
X00325000D02*
X00327000D01*
Y00103000D02*
Y00123000D01*
X00325000Y00103000D02*
X00327000D01*
X00508000Y00292600D02*
X00510000D01*
Y00312600D01*
X00508000D02*
X00510000D01*
X00500000D02*
X00502000D01*
X00500000Y00292600D02*
Y00312600D01*
Y00292600D02*
X00502000D01*
X00498000Y00254000D02*
X00500000D01*
X00498000Y00234000D02*
Y00254000D01*
Y00234000D02*
X00500000D01*
X00506000D02*
X00508000D01*
Y00254000D01*
X00506000D02*
X00508000D01*
X00360810Y00549320D02*
X00362080D01*
Y00572180D01*
X00360810D02*
X00362080D01*
X00351920D02*
X00353190D01*
X00351920Y00549320D02*
Y00572180D01*
Y00549320D02*
X00353190D01*
X00351920Y00560750D02*
X00362080D01*
X00096820Y00675920D02*
Y00677190D01*
Y00675920D02*
X00119680D01*
Y00677190D01*
Y00684810D02*
Y00686080D01*
X00096820D02*
X00119680D01*
X00096820Y00684810D02*
Y00686080D01*
X00108250Y00675920D02*
Y00686080D01*
X00110570Y00566920D02*
Y00568190D01*
Y00566920D02*
X00133430D01*
Y00568190D01*
Y00575810D02*
Y00577080D01*
X00110570D02*
X00133430D01*
X00110570Y00575810D02*
Y00577080D01*
X00122000Y00566920D02*
Y00577080D01*
X00081570Y00566920D02*
Y00568190D01*
Y00566920D02*
X00104430D01*
Y00568190D01*
Y00575810D02*
Y00577080D01*
X00081570D02*
X00104430D01*
X00081570Y00575810D02*
Y00577080D01*
X00093000Y00566920D02*
Y00577080D01*
X00109820Y00581920D02*
Y00583190D01*
Y00581920D02*
X00132680D01*
Y00583190D01*
Y00590810D02*
Y00592080D01*
X00109820D02*
X00132680D01*
X00109820Y00590810D02*
Y00592080D01*
X00121250Y00581920D02*
Y00592080D01*
X00274810Y00503570D02*
X00276080D01*
Y00526430D01*
X00274810D02*
X00276080D01*
X00265920D02*
X00267190D01*
X00265920Y00503570D02*
Y00526430D01*
Y00503570D02*
X00267190D01*
X00265920Y00515000D02*
X00276080D01*
X00289810Y00539570D02*
X00291080D01*
Y00562430D01*
X00289810D02*
X00291080D01*
X00280920D02*
X00282190D01*
X00280920Y00539570D02*
Y00562430D01*
Y00539570D02*
X00282190D01*
X00280920Y00551000D02*
X00291080D01*
X00289810Y00510820D02*
X00291080D01*
Y00533680D01*
X00289810D02*
X00291080D01*
X00280920D02*
X00282190D01*
X00280920Y00510820D02*
Y00533680D01*
Y00510820D02*
X00282190D01*
X00280920Y00522250D02*
X00291080D01*
X00289810Y00481820D02*
X00291080D01*
Y00504680D01*
X00289810D02*
X00291080D01*
X00280920D02*
X00282190D01*
X00280920Y00481820D02*
Y00504680D01*
Y00481820D02*
X00282190D01*
X00280920Y00493250D02*
X00291080D01*
X00289810Y00452820D02*
X00291080D01*
Y00475680D01*
X00289810D02*
X00291080D01*
X00280920D02*
X00282190D01*
X00280920Y00452820D02*
Y00475680D01*
Y00452820D02*
X00282190D01*
X00280920Y00464250D02*
X00291080D01*
X00458570Y00613920D02*
Y00615190D01*
Y00613920D02*
X00481430D01*
Y00615190D01*
Y00622810D02*
Y00624080D01*
X00458570D02*
X00481430D01*
X00458570Y00622810D02*
Y00624080D01*
X00470000Y00613920D02*
Y00624080D01*
X00458570Y00585920D02*
Y00587190D01*
Y00585920D02*
X00481430D01*
Y00587190D01*
Y00594810D02*
Y00596080D01*
X00458570D02*
X00481430D01*
X00458570Y00594810D02*
Y00596080D01*
X00470000Y00585920D02*
Y00596080D01*
X00179570Y00547920D02*
Y00549190D01*
Y00547920D02*
X00202430D01*
Y00549190D01*
Y00556810D02*
Y00558080D01*
X00179570D02*
X00202430D01*
X00179570Y00556810D02*
Y00558080D01*
X00191000Y00547920D02*
Y00558080D01*
X00423430Y00571810D02*
Y00573080D01*
X00400570D02*
X00423430D01*
X00400570Y00571810D02*
Y00573080D01*
Y00562920D02*
Y00564190D01*
Y00562920D02*
X00423430D01*
Y00564190D01*
X00412000Y00562920D02*
Y00573080D01*
X00353500Y00504000D02*
Y00518000D01*
X00340800Y00516080D02*
Y00518000D01*
X00366200D01*
Y00516080D02*
Y00518000D01*
Y00504000D02*
Y00505920D01*
X00340800Y00504000D02*
X00366200D01*
X00340800D02*
Y00505920D01*
X00363680Y00533810D02*
Y00535080D01*
X00340820D02*
X00363680D01*
X00340820Y00533810D02*
Y00535080D01*
Y00524920D02*
Y00526190D01*
Y00524920D02*
X00363680D01*
Y00526190D01*
X00352250Y00524920D02*
Y00535080D01*
X00245000Y00704000D02*
Y00718000D01*
X00232300Y00716080D02*
Y00718000D01*
X00257700D01*
Y00716080D02*
Y00718000D01*
Y00704000D02*
Y00705920D01*
X00232300Y00704000D02*
X00257700D01*
X00232300D02*
Y00705920D01*
X00210500Y00704000D02*
Y00718000D01*
X00223200Y00704000D02*
Y00705920D01*
X00197800Y00704000D02*
X00223200D01*
X00197800D02*
Y00705920D01*
Y00716080D02*
Y00718000D01*
X00223200D01*
Y00716080D02*
Y00718000D01*
X00123570Y00660920D02*
Y00662190D01*
Y00660920D02*
X00146430D01*
Y00662190D01*
Y00669810D02*
Y00671080D01*
X00123570D02*
X00146430D01*
X00123570Y00669810D02*
Y00671080D01*
X00135000Y00660920D02*
Y00671080D01*
X00258810Y00659570D02*
X00260080D01*
Y00682430D01*
X00258810D02*
X00260080D01*
X00249920D02*
X00251190D01*
X00249920Y00659570D02*
Y00682430D01*
Y00659570D02*
X00251190D01*
X00249920Y00671000D02*
X00260080D01*
X00094570Y00660920D02*
Y00662190D01*
Y00660920D02*
X00117430D01*
Y00662190D01*
Y00669810D02*
Y00671080D01*
X00094570D02*
X00117430D01*
X00094570Y00669810D02*
Y00671080D01*
X00106000Y00660920D02*
Y00671080D01*
X00064810Y00676570D02*
X00066080D01*
Y00699430D01*
X00064810D02*
X00066080D01*
X00055920D02*
X00057190D01*
X00055920Y00676570D02*
Y00699430D01*
Y00676570D02*
X00057190D01*
X00055920Y00688000D02*
X00066080D01*
X00049810Y00676570D02*
X00051080D01*
Y00699430D01*
X00049810D02*
X00051080D01*
X00040920D02*
X00042190D01*
X00040920Y00676570D02*
Y00699430D01*
Y00676570D02*
X00042190D01*
X00040920Y00688000D02*
X00051080D01*
X00018570Y00590920D02*
Y00592190D01*
Y00590920D02*
X00041430D01*
Y00592190D01*
Y00599810D02*
Y00601080D01*
X00018570D02*
X00041430D01*
X00018570Y00599810D02*
Y00601080D01*
X00030000Y00590920D02*
Y00601080D01*
X00019920Y00578430D02*
X00021190D01*
X00019920Y00555570D02*
Y00578430D01*
Y00555570D02*
X00021190D01*
X00028810D02*
X00030080D01*
Y00578430D01*
X00028810D02*
X00030080D01*
X00019920Y00567000D02*
X00030080D01*
X00480680Y00566810D02*
Y00568080D01*
X00457820D02*
X00480680D01*
X00457820Y00566810D02*
Y00568080D01*
Y00557920D02*
Y00559190D01*
Y00557920D02*
X00480680D01*
Y00559190D01*
X00469250Y00557920D02*
Y00568080D01*
X00458570Y00599920D02*
Y00601190D01*
Y00599920D02*
X00481430D01*
Y00601190D01*
Y00608810D02*
Y00610080D01*
X00458570D02*
X00481430D01*
X00458570Y00608810D02*
Y00610080D01*
X00470000Y00599920D02*
Y00610080D01*
X00469920Y00682430D02*
X00471190D01*
X00469920Y00659570D02*
Y00682430D01*
Y00659570D02*
X00471190D01*
X00478810D02*
X00480080D01*
Y00682430D01*
X00478810D02*
X00480080D01*
X00469920Y00671000D02*
X00480080D01*
X00361430Y00666810D02*
Y00668080D01*
X00338570D02*
X00361430D01*
X00338570Y00666810D02*
Y00668080D01*
Y00657920D02*
Y00659190D01*
Y00657920D02*
X00361430D01*
Y00659190D01*
X00350000Y00657920D02*
Y00668080D01*
X00420000Y00682000D02*
X00434000D01*
X00432080Y00694700D02*
X00434000D01*
Y00669300D02*
Y00694700D01*
X00432080Y00669300D02*
X00434000D01*
X00420000D02*
X00421920D01*
X00420000D02*
Y00694700D01*
X00421920D01*
X00419500Y00647500D02*
X00433500D01*
X00431580Y00660200D02*
X00433500D01*
Y00634800D02*
Y00660200D01*
X00431580Y00634800D02*
X00433500D01*
X00419500D02*
X00421420D01*
X00419500D02*
Y00660200D01*
X00421420D01*
X00378430Y00641810D02*
Y00643080D01*
X00355570D02*
X00378430D01*
X00355570Y00641810D02*
Y00643080D01*
Y00632920D02*
Y00634190D01*
Y00632920D02*
X00378430D01*
Y00634190D01*
X00367000Y00632920D02*
Y00643080D01*
X00406180Y00641810D02*
Y00643080D01*
X00383320D02*
X00406180D01*
X00383320Y00641810D02*
Y00643080D01*
Y00632920D02*
Y00634190D01*
Y00632920D02*
X00406180D01*
Y00634190D01*
X00394750Y00632920D02*
Y00643080D01*
X00413430Y00716810D02*
Y00718080D01*
X00390570D02*
X00413430D01*
X00390570Y00716810D02*
Y00718080D01*
Y00707920D02*
Y00709190D01*
Y00707920D02*
X00413430D01*
Y00709190D01*
X00402000Y00707920D02*
Y00718080D01*
X00218000Y00630000D02*
Y00644000D01*
X00205300Y00642080D02*
Y00644000D01*
X00230700D01*
Y00642080D02*
Y00644000D01*
Y00630000D02*
Y00631920D01*
X00205300Y00630000D02*
X00230700D01*
X00205300D02*
Y00631920D01*
X00186000Y00630000D02*
Y00644000D01*
X00173300Y00642080D02*
Y00644000D01*
X00198700D01*
Y00642080D02*
Y00644000D01*
Y00630000D02*
Y00631920D01*
X00173300Y00630000D02*
X00198700D01*
X00173300D02*
Y00631920D01*
X00289810Y00423820D02*
X00291080D01*
Y00446680D01*
X00289810D02*
X00291080D01*
X00280920D02*
X00282190D01*
X00280920Y00423820D02*
Y00446680D01*
Y00423820D02*
X00282190D01*
X00280920Y00435250D02*
X00291080D01*
X00258810Y00546570D02*
X00260080D01*
Y00569430D01*
X00258810D02*
X00260080D01*
X00249920D02*
X00251190D01*
X00249920Y00546570D02*
Y00569430D01*
Y00546570D02*
X00251190D01*
X00249920Y00558000D02*
X00260080D01*
X00177430Y00522810D02*
Y00524080D01*
X00154570D02*
X00177430D01*
X00154570Y00522810D02*
Y00524080D01*
Y00513920D02*
Y00515190D01*
Y00513920D02*
X00177430D01*
Y00515190D01*
X00166000Y00513920D02*
Y00524080D01*
X00179570Y00576920D02*
Y00578190D01*
Y00576920D02*
X00202430D01*
Y00578190D01*
Y00585810D02*
Y00587080D01*
X00179570D02*
X00202430D01*
X00179570Y00585810D02*
Y00587080D01*
X00191000Y00576920D02*
Y00587080D01*
X00230680Y00585810D02*
Y00587080D01*
X00207820D02*
X00230680D01*
X00207820Y00585810D02*
Y00587080D01*
Y00576920D02*
Y00578190D01*
Y00576920D02*
X00230680D01*
Y00578190D01*
X00219250Y00576920D02*
Y00587080D01*
X00225000Y00606750D02*
Y00609160D01*
X00179140D02*
X00225000D01*
X00177870D02*
X00179140D01*
X00177870Y00602540D02*
Y00609160D01*
Y00602540D02*
X00179140D01*
Y00609160D01*
Y00590840D02*
Y00597460D01*
X00177870D02*
X00179140D01*
X00177870Y00590840D02*
Y00597460D01*
Y00590840D02*
X00179140D01*
X00225000D01*
Y00593250D01*
X00092000Y00683000D02*
Y00685000D01*
X00072000D02*
X00092000D01*
X00072000Y00683000D02*
Y00685000D01*
Y00675000D02*
Y00677000D01*
Y00675000D02*
X00092000D01*
Y00677000D01*
X00066000Y00602000D02*
X00068000D01*
X00066000Y00582000D02*
Y00602000D01*
Y00582000D02*
X00068000D01*
X00074000D02*
X00076000D01*
Y00602000D01*
X00074000D02*
X00076000D01*
X00072000Y00691000D02*
Y00693000D01*
Y00691000D02*
X00092000D01*
Y00693000D01*
Y00699000D02*
Y00701000D01*
X00072000D02*
X00092000D01*
X00072000Y00699000D02*
Y00701000D01*
X00056000Y00567000D02*
Y00569000D01*
Y00567000D02*
X00076000D01*
Y00569000D01*
Y00575000D02*
Y00577000D01*
X00056000D02*
X00076000D01*
X00056000Y00575000D02*
Y00577000D01*
X00480000Y00580000D02*
Y00582000D01*
X00460000D02*
X00480000D01*
X00460000Y00580000D02*
Y00582000D01*
Y00572000D02*
Y00574000D01*
Y00572000D02*
X00480000D01*
Y00574000D01*
X00438000Y00653000D02*
X00440000D01*
X00438000Y00633000D02*
Y00653000D01*
Y00633000D02*
X00440000D01*
X00446000D02*
X00448000D01*
Y00653000D01*
X00446000D02*
X00448000D01*
X00315000Y00697000D02*
Y00699000D01*
Y00697000D02*
X00335000D01*
Y00699000D01*
Y00705000D02*
Y00707000D01*
X00315000D02*
X00335000D01*
X00315000Y00705000D02*
Y00707000D01*
X00181000Y00616000D02*
Y00618000D01*
Y00616000D02*
X00201000D01*
Y00618000D01*
Y00624000D02*
Y00626000D01*
X00181000D02*
X00201000D01*
X00181000Y00624000D02*
Y00626000D01*
X00271000Y00567000D02*
Y00569000D01*
Y00567000D02*
X00291000D01*
Y00569000D01*
Y00575000D02*
Y00577000D01*
X00271000D02*
X00291000D01*
X00271000Y00575000D02*
Y00577000D01*
X00199000Y00514000D02*
X00201000D01*
Y00534000D01*
X00199000D02*
X00201000D01*
X00191000D02*
X00193000D01*
X00191000Y00514000D02*
Y00534000D01*
Y00514000D02*
X00193000D01*
X00205000Y00534000D02*
X00207000D01*
X00205000Y00514000D02*
Y00534000D01*
Y00514000D02*
X00207000D01*
X00213000D02*
X00215000D01*
Y00534000D01*
X00213000D02*
X00215000D01*
X00163000Y00605000D02*
X00165000D01*
X00163000Y00585000D02*
Y00605000D01*
Y00585000D02*
X00165000D01*
X00171000D02*
X00173000D01*
Y00605000D01*
X00171000D02*
X00173000D01*
X00181000Y00563000D02*
Y00565000D01*
Y00563000D02*
X00201000D01*
Y00565000D01*
Y00571000D02*
Y00573000D01*
X00181000D02*
X00201000D01*
X00181000Y00571000D02*
Y00573000D01*
X00150430Y00444810D02*
Y00446080D01*
X00127570D02*
X00150430D01*
X00127570Y00444810D02*
Y00446080D01*
Y00435920D02*
Y00437190D01*
Y00435920D02*
X00150430D01*
Y00437190D01*
X00139000Y00435920D02*
Y00446080D01*
X00204000Y00432000D02*
Y00446000D01*
X00216700Y00432000D02*
Y00433920D01*
X00191300Y00432000D02*
X00216700D01*
X00191300D02*
Y00433920D01*
Y00444080D02*
Y00446000D01*
X00216700D01*
Y00444080D02*
Y00446000D01*
X00163810Y00424570D02*
X00165080D01*
Y00447430D01*
X00163810D02*
X00165080D01*
X00154920D02*
X00156190D01*
X00154920Y00424570D02*
Y00447430D01*
Y00424570D02*
X00156190D01*
X00154920Y00436000D02*
X00165080D01*
X00030500Y00435000D02*
Y00449000D01*
X00017800Y00447080D02*
Y00449000D01*
X00043200D01*
Y00447080D02*
Y00449000D01*
Y00435000D02*
Y00436920D01*
X00017800Y00435000D02*
X00043200D01*
X00017800D02*
Y00436920D01*
X00111430Y00445810D02*
Y00447080D01*
X00088570D02*
X00111430D01*
X00088570Y00445810D02*
Y00447080D01*
Y00436920D02*
Y00438190D01*
Y00436920D02*
X00111430D01*
Y00438190D01*
X00100000Y00436920D02*
Y00447080D01*
X00047920Y00448430D02*
X00049190D01*
X00047920Y00425570D02*
Y00448430D01*
Y00425570D02*
X00049190D01*
X00056810D02*
X00058080D01*
Y00448430D01*
X00056810D02*
X00058080D01*
X00047920Y00437000D02*
X00058080D01*
X00220000Y00467750D02*
Y00470160D01*
X00174140D02*
X00220000D01*
X00172870D02*
X00174140D01*
X00172870Y00463540D02*
Y00470160D01*
Y00463540D02*
X00174140D01*
Y00470160D01*
Y00451840D02*
Y00458460D01*
X00172870D02*
X00174140D01*
X00172870Y00451840D02*
Y00458460D01*
Y00451840D02*
X00174140D01*
X00220000D01*
Y00454250D01*
X00167000Y00467750D02*
Y00470160D01*
X00121140D02*
X00167000D01*
X00119870D02*
X00121140D01*
X00119870Y00463540D02*
Y00470160D01*
Y00463540D02*
X00121140D01*
Y00470160D01*
Y00451840D02*
Y00458460D01*
X00119870D02*
X00121140D01*
X00119870Y00451840D02*
Y00458460D01*
Y00451840D02*
X00121140D01*
X00167000D01*
Y00454250D01*
X00014000Y00451840D02*
Y00454250D01*
Y00451840D02*
X00059860D01*
X00061130D01*
Y00458460D01*
X00059860D02*
X00061130D01*
X00059860Y00451840D02*
Y00458460D01*
Y00463540D02*
Y00470160D01*
Y00463540D02*
X00061130D01*
Y00470160D01*
X00059860D02*
X00061130D01*
X00014000D02*
X00059860D01*
X00014000Y00467750D02*
Y00470160D01*
X00067000Y00451840D02*
Y00454250D01*
Y00451840D02*
X00112860D01*
X00114130D01*
Y00458460D01*
X00112860D02*
X00114130D01*
X00112860Y00451840D02*
Y00458460D01*
Y00463540D02*
Y00470160D01*
Y00463540D02*
X00114130D01*
Y00470160D01*
X00112860D02*
X00114130D01*
X00067000D02*
X00112860D01*
X00067000Y00467750D02*
Y00470160D01*
X00155000Y00194840D02*
Y00197250D01*
Y00194840D02*
X00200860D01*
X00202130D01*
Y00201460D01*
X00200860D02*
X00202130D01*
X00200860Y00194840D02*
Y00201460D01*
Y00206540D02*
Y00213160D01*
Y00206540D02*
X00202130D01*
Y00213160D01*
X00200860D02*
X00202130D01*
X00155000D02*
X00200860D01*
X00155000Y00210750D02*
Y00213160D01*
X00201000Y00186750D02*
Y00189160D01*
X00155140D02*
X00201000D01*
X00153870D02*
X00155140D01*
X00153870Y00182540D02*
Y00189160D01*
Y00182540D02*
X00155140D01*
Y00189160D01*
Y00170840D02*
Y00177460D01*
X00153870D02*
X00155140D01*
X00153870Y00170840D02*
Y00177460D01*
Y00170840D02*
X00155140D01*
X00201000D01*
Y00173250D01*
X00115000Y00210750D02*
Y00213160D01*
X00069140D02*
X00115000D01*
X00067870D02*
X00069140D01*
X00067870Y00206540D02*
Y00213160D01*
Y00206540D02*
X00069140D01*
Y00213160D01*
Y00194840D02*
Y00201460D01*
X00067870D02*
X00069140D01*
X00067870Y00194840D02*
Y00201460D01*
Y00194840D02*
X00069140D01*
X00115000D01*
Y00197250D01*
X00069000Y00170840D02*
Y00173250D01*
Y00170840D02*
X00114860D01*
X00116130D01*
Y00177460D01*
X00114860D02*
X00116130D01*
X00114860Y00170840D02*
Y00177460D01*
Y00182540D02*
Y00189160D01*
Y00182540D02*
X00116130D01*
Y00189160D01*
X00114860D02*
X00116130D01*
X00069000D02*
X00114860D01*
X00069000Y00186750D02*
Y00189160D01*
X00163000Y00399000D02*
X00165000D01*
Y00419000D01*
X00163000D02*
X00165000D01*
X00155000D02*
X00157000D01*
X00155000Y00399000D02*
Y00419000D01*
Y00399000D02*
X00157000D01*
X00056000Y00400600D02*
X00058000D01*
Y00420600D01*
X00056000D02*
X00058000D01*
X00048000D02*
X00050000D01*
X00048000Y00400600D02*
Y00420600D01*
Y00400600D02*
X00050000D01*
X00187000Y00330000D02*
X00190000D01*
X00187000Y00302000D02*
Y00330000D01*
Y00302000D02*
X00190000D01*
X00198000D02*
X00201000D01*
Y00330000D01*
X00198000D02*
X00201000D01*
X00187000Y00316000D02*
X00201000D01*
X00181000Y00302000D02*
X00184000D01*
Y00330000D01*
X00181000D02*
X00184000D01*
X00170000D02*
X00173000D01*
X00170000Y00302000D02*
Y00330000D01*
Y00302000D02*
X00173000D01*
X00170000Y00316000D02*
X00184000D01*
X00164000Y00302000D02*
X00167000D01*
Y00330000D01*
X00164000D02*
X00167000D01*
X00153000D02*
X00156000D01*
X00153000Y00302000D02*
Y00330000D01*
Y00302000D02*
X00156000D01*
X00153000Y00316000D02*
X00167000D01*
X00147000Y00302000D02*
X00150000D01*
Y00330000D01*
X00147000D02*
X00150000D01*
X00136000D02*
X00139000D01*
X00136000Y00302000D02*
Y00330000D01*
Y00302000D02*
X00139000D01*
X00136000Y00316000D02*
X00150000D01*
X00130000Y00302000D02*
X00133000D01*
Y00330000D01*
X00130000D02*
X00133000D01*
X00119000D02*
X00122000D01*
X00119000Y00302000D02*
Y00330000D01*
Y00302000D02*
X00122000D01*
X00119000Y00316000D02*
X00133000D01*
D12*
X00531200Y00150000D02*
X00532800D01*
X00531200Y00134000D02*
X00532800D01*
D13*
X00399736Y00329290D02*
X00442264D01*
X00399736Y00260710D02*
X00442264D01*
D14*
X00178843Y00398078D02*
X00176304Y00400618D01*
X00171226D01*
X00168687Y00398078D01*
Y00387922D01*
X00171226Y00385382D01*
X00176304D01*
X00178843Y00387922D01*
X00194078Y00385382D02*
X00183922D01*
X00194078Y00395539D01*
Y00398078D01*
X00191539Y00400618D01*
X00186461D01*
X00183922Y00398078D01*
X00209313Y00400618D02*
X00199157D01*
Y00393000D01*
X00204235Y00395539D01*
X00206774D01*
X00209313Y00393000D01*
Y00387922D01*
X00206774Y00385382D01*
X00201696D01*
X00199157Y00387922D01*
X00515956Y00124117D02*
Y00108883D01*
X00523574D01*
X00526113Y00111422D01*
Y00121578D01*
X00523574Y00124117D01*
X00515956D01*
X00531191Y00108883D02*
X00536270D01*
X00533730D01*
Y00124117D01*
X00531191Y00121578D01*
X00543887D02*
X00546426Y00124117D01*
X00551505D01*
X00554044Y00121578D01*
Y00111422D01*
X00551505Y00108883D01*
X00546426D01*
X00543887Y00111422D01*
Y00121578D01*
X00546687Y00198382D02*
Y00213617D01*
X00554304D01*
X00556843Y00211078D01*
Y00206000D01*
X00554304Y00203461D01*
X00546687D01*
X00551765D02*
X00556843Y00198382D01*
X00569539D02*
Y00213617D01*
X00561922Y00206000D01*
X00572078D01*
X00587313Y00198382D02*
X00577157D01*
X00587313Y00208539D01*
Y00211078D01*
X00584774Y00213617D01*
X00579696D01*
X00577157Y00211078D01*
X00374339Y00595617D02*
X00384495D01*
X00379417D01*
Y00580382D01*
X00389574D02*
Y00595617D01*
X00397191D01*
X00399730Y00593078D01*
Y00588000D01*
X00397191Y00585461D01*
X00389574D01*
X00404809Y00580382D02*
X00409887D01*
X00407348D01*
Y00595617D01*
X00404809Y00593078D01*
X00427661Y00580382D02*
X00417505D01*
X00427661Y00590539D01*
Y00593078D01*
X00425122Y00595617D01*
X00420044D01*
X00417505Y00593078D01*
X00352477Y00405216D02*
X00362633D01*
X00357555D01*
Y00389981D01*
X00367712D02*
Y00405216D01*
X00375329D01*
X00377868Y00402677D01*
Y00397599D01*
X00375329Y00395060D01*
X00367712D01*
X00382947Y00389981D02*
X00388025D01*
X00385486D01*
Y00405216D01*
X00382947Y00402677D01*
X00395643Y00389981D02*
X00400721D01*
X00398182D01*
Y00405216D01*
X00395643Y00402677D01*
X00485339Y00663617D02*
X00495495D01*
X00490417D01*
Y00648382D01*
X00500574D02*
Y00663617D01*
X00508191D01*
X00510730Y00661078D01*
Y00656000D01*
X00508191Y00653461D01*
X00500574D01*
X00515809Y00648382D02*
X00520887D01*
X00518348D01*
Y00663617D01*
X00515809Y00661078D01*
X00528505D02*
X00531044Y00663617D01*
X00536122D01*
X00538661Y00661078D01*
Y00650922D01*
X00536122Y00648382D01*
X00531044D01*
X00528505Y00650922D01*
Y00661078D01*
X00240382Y00474687D02*
Y00484843D01*
Y00479765D01*
X00255618D01*
Y00489922D02*
X00240382D01*
Y00497539D01*
X00242922Y00500078D01*
X00248000D01*
X00250539Y00497539D01*
Y00489922D01*
X00253078Y00505157D02*
X00255618Y00507696D01*
Y00512774D01*
X00253078Y00515313D01*
X00242922D01*
X00240382Y00512774D01*
Y00507696D01*
X00242922Y00505157D01*
X00245461D01*
X00248000Y00507696D01*
Y00515313D01*
X00085687Y00511618D02*
X00095843D01*
X00090765D01*
Y00496382D01*
X00100922D02*
Y00511618D01*
X00108539D01*
X00111078Y00509078D01*
Y00504000D01*
X00108539Y00501461D01*
X00100922D01*
X00116157Y00509078D02*
X00118696Y00511618D01*
X00123774D01*
X00126313Y00509078D01*
Y00506539D01*
X00123774Y00504000D01*
X00126313Y00501461D01*
Y00498922D01*
X00123774Y00496382D01*
X00118696D01*
X00116157Y00498922D01*
Y00501461D01*
X00118696Y00504000D01*
X00116157Y00506539D01*
Y00509078D01*
X00118696Y00504000D02*
X00123774D01*
X00217687Y00542617D02*
X00227843D01*
X00222765D01*
Y00527383D01*
X00232922D02*
Y00542617D01*
X00240539D01*
X00243078Y00540078D01*
Y00535000D01*
X00240539Y00532461D01*
X00232922D01*
X00248157Y00542617D02*
X00258314D01*
Y00540078D01*
X00248157Y00529922D01*
Y00527383D01*
X00044687Y00110618D02*
X00054843D01*
X00049765D01*
Y00095382D01*
X00059922D02*
Y00110618D01*
X00067539D01*
X00070078Y00108078D01*
Y00103000D01*
X00067539Y00100461D01*
X00059922D01*
X00085313Y00110618D02*
X00080235Y00108078D01*
X00075157Y00103000D01*
Y00097922D01*
X00077696Y00095382D01*
X00082774D01*
X00085313Y00097922D01*
Y00100461D01*
X00082774Y00103000D01*
X00075157D01*
X00169687Y00066617D02*
X00179843D01*
X00174765D01*
Y00051382D01*
X00184922D02*
Y00066617D01*
X00192539D01*
X00195078Y00064078D01*
Y00059000D01*
X00192539Y00056461D01*
X00184922D01*
X00210313Y00066617D02*
X00200157D01*
Y00059000D01*
X00205235Y00061539D01*
X00207774D01*
X00210313Y00059000D01*
Y00053922D01*
X00207774Y00051382D01*
X00202696D01*
X00200157Y00053922D01*
X00221687Y00400617D02*
X00231843D01*
X00226765D01*
Y00385382D01*
X00236922D02*
Y00400617D01*
X00244539D01*
X00247078Y00398078D01*
Y00393000D01*
X00244539Y00390461D01*
X00236922D01*
X00259774Y00385382D02*
Y00400617D01*
X00252157Y00393000D01*
X00262313D01*
X00252183Y00231618D02*
X00262339D01*
X00257261D01*
Y00216382D01*
X00267418D02*
Y00231618D01*
X00275035D01*
X00277574Y00229078D01*
Y00224000D01*
X00275035Y00221461D01*
X00267418D01*
X00282653Y00229078D02*
X00285192Y00231618D01*
X00290270D01*
X00292809Y00229078D01*
Y00226539D01*
X00290270Y00224000D01*
X00287731D01*
X00290270D01*
X00292809Y00221461D01*
Y00218922D01*
X00290270Y00216382D01*
X00285192D01*
X00282653Y00218922D01*
X00175687Y00034618D02*
X00185843D01*
X00180765D01*
Y00019382D01*
X00190922D02*
Y00034618D01*
X00198539D01*
X00201078Y00032078D01*
Y00027000D01*
X00198539Y00024461D01*
X00190922D01*
X00216313Y00019382D02*
X00206157D01*
X00216313Y00029539D01*
Y00032078D01*
X00213774Y00034618D01*
X00208696D01*
X00206157Y00032078D01*
X00229382Y00309226D02*
Y00319382D01*
Y00314304D01*
X00244618D01*
Y00324461D02*
X00229382D01*
Y00332078D01*
X00231922Y00334618D01*
X00237000D01*
X00239539Y00332078D01*
Y00324461D01*
X00244618Y00339696D02*
Y00344774D01*
Y00342235D01*
X00229382D01*
X00231922Y00339696D01*
X00123687Y00677383D02*
Y00692617D01*
X00131304D01*
X00133843Y00690078D01*
Y00685000D01*
X00131304Y00682461D01*
X00123687D01*
X00128765D02*
X00133843Y00677383D01*
X00149078Y00692617D02*
X00138922D01*
Y00685000D01*
X00144000Y00687539D01*
X00146539D01*
X00149078Y00685000D01*
Y00679922D01*
X00146539Y00677383D01*
X00141461D01*
X00138922Y00679922D01*
X00161774Y00677383D02*
Y00692617D01*
X00154157Y00685000D01*
X00164313D01*
X00112382Y00562313D02*
X00127618D01*
Y00554696D01*
X00125078Y00552157D01*
X00120000D01*
X00117461Y00554696D01*
Y00562313D01*
Y00557235D02*
X00112382Y00552157D01*
X00127618Y00536922D02*
Y00547078D01*
X00120000D01*
X00122539Y00542000D01*
Y00539461D01*
X00120000Y00536922D01*
X00114922D01*
X00112382Y00539461D01*
Y00544539D01*
X00114922Y00547078D01*
X00125078Y00531843D02*
X00127618Y00529304D01*
Y00524226D01*
X00125078Y00521687D01*
X00122539D01*
X00120000Y00524226D01*
Y00526765D01*
Y00524226D01*
X00117461Y00521687D01*
X00114922D01*
X00112382Y00524226D01*
Y00529304D01*
X00114922Y00531843D01*
X00061687Y00547382D02*
Y00562617D01*
X00069304D01*
X00071843Y00560078D01*
Y00555000D01*
X00069304Y00552461D01*
X00061687D01*
X00066765D02*
X00071843Y00547382D01*
X00087078Y00562617D02*
X00076922D01*
Y00555000D01*
X00082000Y00557539D01*
X00084539D01*
X00087078Y00555000D01*
Y00549922D01*
X00084539Y00547382D01*
X00079461D01*
X00076922Y00549922D01*
X00102313Y00547382D02*
X00092157D01*
X00102313Y00557539D01*
Y00560078D01*
X00099774Y00562617D01*
X00094696D01*
X00092157Y00560078D01*
X00101476Y00596382D02*
Y00611618D01*
X00109093D01*
X00111632Y00609078D01*
Y00604000D01*
X00109093Y00601461D01*
X00101476D01*
X00106554D02*
X00111632Y00596382D01*
X00126868Y00611618D02*
X00116711D01*
Y00604000D01*
X00121789Y00606539D01*
X00124328D01*
X00126868Y00604000D01*
Y00598922D01*
X00124328Y00596382D01*
X00119250D01*
X00116711Y00598922D01*
X00131946Y00596382D02*
X00137024D01*
X00134485D01*
Y00611618D01*
X00131946Y00609078D01*
X00259382Y00500313D02*
X00274618D01*
Y00492696D01*
X00272078Y00490157D01*
X00267000D01*
X00264461Y00492696D01*
Y00500313D01*
Y00495235D02*
X00259382Y00490157D01*
X00274618Y00474922D02*
Y00485078D01*
X00267000D01*
X00269539Y00480000D01*
Y00477461D01*
X00267000Y00474922D01*
X00261922D01*
X00259382Y00477461D01*
Y00482539D01*
X00261922Y00485078D01*
X00272078Y00469843D02*
X00274618Y00467304D01*
Y00462226D01*
X00272078Y00459687D01*
X00261922D01*
X00259382Y00462226D01*
Y00467304D01*
X00261922Y00469843D01*
X00272078D01*
X00295687Y00537382D02*
Y00552617D01*
X00303304D01*
X00305843Y00550078D01*
Y00545000D01*
X00303304Y00542461D01*
X00295687D01*
X00300765D02*
X00305843Y00537382D01*
X00318539D02*
Y00552617D01*
X00310922Y00545000D01*
X00321078D01*
X00326157Y00539922D02*
X00328696Y00537382D01*
X00333774D01*
X00336314Y00539922D01*
Y00550078D01*
X00333774Y00552617D01*
X00328696D01*
X00326157Y00550078D01*
Y00547539D01*
X00328696Y00545000D01*
X00336314D01*
X00295687Y00510632D02*
Y00525868D01*
X00303304D01*
X00305843Y00523328D01*
Y00518250D01*
X00303304Y00515711D01*
X00295687D01*
X00300765D02*
X00305843Y00510632D01*
X00318539D02*
Y00525868D01*
X00310922Y00518250D01*
X00321078D01*
X00326157Y00523328D02*
X00328696Y00525868D01*
X00333774D01*
X00336314Y00523328D01*
Y00520789D01*
X00333774Y00518250D01*
X00336314Y00515711D01*
Y00513172D01*
X00333774Y00510632D01*
X00328696D01*
X00326157Y00513172D01*
Y00515711D01*
X00328696Y00518250D01*
X00326157Y00520789D01*
Y00523328D01*
X00328696Y00518250D02*
X00333774D01*
X00295687Y00481632D02*
Y00496867D01*
X00303304D01*
X00305843Y00494328D01*
Y00489250D01*
X00303304Y00486711D01*
X00295687D01*
X00300765D02*
X00305843Y00481632D01*
X00318539D02*
Y00496867D01*
X00310922Y00489250D01*
X00321078D01*
X00326157Y00496867D02*
X00336314D01*
Y00494328D01*
X00326157Y00484172D01*
Y00481632D01*
X00295687Y00454632D02*
Y00469868D01*
X00303304D01*
X00305843Y00467328D01*
Y00462250D01*
X00303304Y00459711D01*
X00295687D01*
X00300765D02*
X00305843Y00454632D01*
X00318539D02*
Y00469868D01*
X00310922Y00462250D01*
X00321078D01*
X00336314Y00469868D02*
X00331235Y00467328D01*
X00326157Y00462250D01*
Y00457172D01*
X00328696Y00454632D01*
X00333774D01*
X00336314Y00457172D01*
Y00459711D01*
X00333774Y00462250D01*
X00326157D01*
X00485687Y00624383D02*
Y00639618D01*
X00493304D01*
X00495843Y00637078D01*
Y00632000D01*
X00493304Y00629461D01*
X00485687D01*
X00490765D02*
X00495843Y00624383D01*
X00508539D02*
Y00639618D01*
X00500922Y00632000D01*
X00511078D01*
X00526314Y00639618D02*
X00516157D01*
Y00632000D01*
X00521235Y00634539D01*
X00523774D01*
X00526314Y00632000D01*
Y00626922D01*
X00523774Y00624383D01*
X00518696D01*
X00516157Y00626922D01*
X00485687Y00582383D02*
Y00597617D01*
X00493304D01*
X00495843Y00595078D01*
Y00590000D01*
X00493304Y00587461D01*
X00485687D01*
X00490765D02*
X00495843Y00582383D01*
X00508539D02*
Y00597617D01*
X00500922Y00590000D01*
X00511078D01*
X00523774Y00582383D02*
Y00597617D01*
X00516157Y00590000D01*
X00526314D01*
X00135687Y00534382D02*
Y00549618D01*
X00143304D01*
X00145843Y00547078D01*
Y00542000D01*
X00143304Y00539461D01*
X00135687D01*
X00140765D02*
X00145843Y00534382D01*
X00158539D02*
Y00549618D01*
X00150922Y00542000D01*
X00161078D01*
X00166157Y00547078D02*
X00168696Y00549618D01*
X00173774D01*
X00176313Y00547078D01*
Y00544539D01*
X00173774Y00542000D01*
X00171235D01*
X00173774D01*
X00176313Y00539461D01*
Y00536922D01*
X00173774Y00534382D01*
X00168696D01*
X00166157Y00536922D01*
X00382617Y00538226D02*
X00367383D01*
Y00545843D01*
X00369922Y00548382D01*
X00375000D01*
X00377539Y00545843D01*
Y00538226D01*
Y00543304D02*
X00382617Y00548382D01*
Y00561078D02*
X00367383D01*
X00375000Y00553461D01*
Y00563618D01*
X00382617Y00568696D02*
Y00573774D01*
Y00571235D01*
X00367383D01*
X00369922Y00568696D01*
X00401937Y00541382D02*
Y00556618D01*
X00409554D01*
X00412093Y00554078D01*
Y00549000D01*
X00409554Y00546461D01*
X00401937D01*
X00407015D02*
X00412093Y00541382D01*
X00424789D02*
Y00556618D01*
X00417172Y00549000D01*
X00427328D01*
X00432407Y00554078D02*
X00434946Y00556618D01*
X00440024D01*
X00442563Y00554078D01*
Y00543922D01*
X00440024Y00541382D01*
X00434946D01*
X00432407Y00543922D01*
Y00554078D01*
X00341687Y00483382D02*
Y00498618D01*
X00349304D01*
X00351843Y00496078D01*
Y00491000D01*
X00349304Y00488461D01*
X00341687D01*
X00346765D02*
X00351843Y00483382D01*
X00356922Y00496078D02*
X00359461Y00498618D01*
X00364539D01*
X00367078Y00496078D01*
Y00493539D01*
X00364539Y00491000D01*
X00362000D01*
X00364539D01*
X00367078Y00488461D01*
Y00485922D01*
X00364539Y00483382D01*
X00359461D01*
X00356922Y00485922D01*
X00372157D02*
X00374696Y00483382D01*
X00379774D01*
X00382313Y00485922D01*
Y00496078D01*
X00379774Y00498618D01*
X00374696D01*
X00372157Y00496078D01*
Y00493539D01*
X00374696Y00491000D01*
X00382313D01*
X00370687Y00518382D02*
Y00533618D01*
X00378304D01*
X00380843Y00531078D01*
Y00526000D01*
X00378304Y00523461D01*
X00370687D01*
X00375765D02*
X00380843Y00518382D01*
X00385922Y00531078D02*
X00388461Y00533618D01*
X00393539D01*
X00396078Y00531078D01*
Y00528539D01*
X00393539Y00526000D01*
X00391000D01*
X00393539D01*
X00396078Y00523461D01*
Y00520922D01*
X00393539Y00518382D01*
X00388461D01*
X00385922Y00520922D01*
X00401157Y00531078D02*
X00403696Y00533618D01*
X00408774D01*
X00411314Y00531078D01*
Y00528539D01*
X00408774Y00526000D01*
X00411314Y00523461D01*
Y00520922D01*
X00408774Y00518382D01*
X00403696D01*
X00401157Y00520922D01*
Y00523461D01*
X00403696Y00526000D01*
X00401157Y00528539D01*
Y00531078D01*
X00403696Y00526000D02*
X00408774D01*
X00144618Y00391687D02*
X00129382D01*
Y00399304D01*
X00131922Y00401843D01*
X00137000D01*
X00139539Y00399304D01*
Y00391687D01*
Y00396765D02*
X00144618Y00401843D01*
X00131922Y00406922D02*
X00129382Y00409461D01*
Y00414539D01*
X00131922Y00417078D01*
X00134461D01*
X00137000Y00414539D01*
Y00412000D01*
Y00414539D01*
X00139539Y00417078D01*
X00142078D01*
X00144618Y00414539D01*
Y00409461D01*
X00142078Y00406922D01*
X00129382Y00422157D02*
Y00432313D01*
X00131922D01*
X00142078Y00422157D01*
X00144618D01*
X00239618Y00426687D02*
X00224382D01*
Y00434304D01*
X00226922Y00436843D01*
X00232000D01*
X00234539Y00434304D01*
Y00426687D01*
Y00431765D02*
X00239618Y00436843D01*
X00226922Y00441922D02*
X00224382Y00444461D01*
Y00449539D01*
X00226922Y00452078D01*
X00229461D01*
X00232000Y00449539D01*
Y00447000D01*
Y00449539D01*
X00234539Y00452078D01*
X00237078D01*
X00239618Y00449539D01*
Y00444461D01*
X00237078Y00441922D01*
X00224382Y00467313D02*
X00226922Y00462235D01*
X00232000Y00457157D01*
X00237078D01*
X00239618Y00459696D01*
Y00464774D01*
X00237078Y00467313D01*
X00234539D01*
X00232000Y00464774D01*
Y00457157D01*
X00185618Y00405687D02*
X00170382D01*
Y00413304D01*
X00172922Y00415843D01*
X00178000D01*
X00180539Y00413304D01*
Y00405687D01*
Y00410765D02*
X00185618Y00415843D01*
X00172922Y00420922D02*
X00170382Y00423461D01*
Y00428539D01*
X00172922Y00431078D01*
X00175461D01*
X00178000Y00428539D01*
Y00426000D01*
Y00428539D01*
X00180539Y00431078D01*
X00183078D01*
X00185618Y00428539D01*
Y00423461D01*
X00183078Y00420922D01*
X00170382Y00446313D02*
Y00436157D01*
X00178000D01*
X00175461Y00441235D01*
Y00443774D01*
X00178000Y00446313D01*
X00183078D01*
X00185618Y00443774D01*
Y00438696D01*
X00183078Y00436157D01*
X00023998Y00399005D02*
X00012002D01*
Y00405003D01*
X00014001Y00407003D01*
X00018000D01*
X00019999Y00405003D01*
Y00399005D01*
Y00403004D02*
X00023998Y00407003D01*
X00014001Y00411001D02*
X00012002Y00413001D01*
Y00416999D01*
X00014001Y00418999D01*
X00016001D01*
X00018000Y00416999D01*
Y00415000D01*
Y00416999D01*
X00019999Y00418999D01*
X00021999D01*
X00023998Y00416999D01*
Y00413001D01*
X00021999Y00411001D01*
X00023998Y00428995D02*
X00012002D01*
X00018000Y00422997D01*
Y00430995D01*
X00106617Y00391687D02*
X00091382D01*
Y00399304D01*
X00093922Y00401843D01*
X00099000D01*
X00101539Y00399304D01*
Y00391687D01*
Y00396765D02*
X00106617Y00401843D01*
X00093922Y00406922D02*
X00091382Y00409461D01*
Y00414539D01*
X00093922Y00417078D01*
X00096461D01*
X00099000Y00414539D01*
Y00412000D01*
Y00414539D01*
X00101539Y00417078D01*
X00104078D01*
X00106617Y00414539D01*
Y00409461D01*
X00104078Y00406922D01*
X00093922Y00422157D02*
X00091382Y00424696D01*
Y00429774D01*
X00093922Y00432313D01*
X00096461D01*
X00099000Y00429774D01*
Y00427235D01*
Y00429774D01*
X00101539Y00432313D01*
X00104078D01*
X00106617Y00429774D01*
Y00424696D01*
X00104078Y00422157D01*
X00044618Y00390686D02*
X00029382D01*
Y00398304D01*
X00031922Y00400843D01*
X00037000D01*
X00039539Y00398304D01*
Y00390686D01*
Y00395765D02*
X00044618Y00400843D01*
X00031922Y00405922D02*
X00029382Y00408461D01*
Y00413539D01*
X00031922Y00416078D01*
X00034461D01*
X00037000Y00413539D01*
Y00411000D01*
Y00413539D01*
X00039539Y00416078D01*
X00042078D01*
X00044618Y00413539D01*
Y00408461D01*
X00042078Y00405922D01*
X00044618Y00431313D02*
Y00421157D01*
X00034461Y00431313D01*
X00031922D01*
X00029382Y00428774D01*
Y00423696D01*
X00031922Y00421157D01*
X00168226Y00674382D02*
Y00689617D01*
X00175843D01*
X00178382Y00687078D01*
Y00682000D01*
X00175843Y00679461D01*
X00168226D01*
X00173304D02*
X00178382Y00674382D01*
X00183461Y00687078D02*
X00186000Y00689617D01*
X00191078D01*
X00193618Y00687078D01*
Y00684539D01*
X00191078Y00682000D01*
X00188539D01*
X00191078D01*
X00193618Y00679461D01*
Y00676922D01*
X00191078Y00674382D01*
X00186000D01*
X00183461Y00676922D01*
X00198696Y00674382D02*
X00203774D01*
X00201235D01*
Y00689617D01*
X00198696Y00687078D01*
X00275005Y00705002D02*
Y00716998D01*
X00281003D01*
X00283003Y00714999D01*
Y00711000D01*
X00281003Y00709001D01*
X00275005D01*
X00279004D02*
X00283003Y00705002D01*
X00287001Y00714999D02*
X00289001Y00716998D01*
X00292999D01*
X00294999Y00714999D01*
Y00712999D01*
X00292999Y00711000D01*
X00291000D01*
X00292999D01*
X00294999Y00709001D01*
Y00707001D01*
X00292999Y00705002D01*
X00289001D01*
X00287001Y00707001D01*
X00298997Y00714999D02*
X00300997Y00716998D01*
X00304995D01*
X00306995Y00714999D01*
Y00707001D01*
X00304995Y00705002D01*
X00300997D01*
X00298997Y00707001D01*
Y00714999D01*
X00131687Y00698382D02*
Y00713617D01*
X00139304D01*
X00141843Y00711078D01*
Y00706000D01*
X00139304Y00703461D01*
X00131687D01*
X00136765D02*
X00141843Y00698382D01*
X00157078D02*
X00146922D01*
X00157078Y00708539D01*
Y00711078D01*
X00154539Y00713617D01*
X00149461D01*
X00146922Y00711078D01*
X00162157Y00700922D02*
X00164696Y00698382D01*
X00169774D01*
X00172313Y00700922D01*
Y00711078D01*
X00169774Y00713617D01*
X00164696D01*
X00162157Y00711078D01*
Y00708539D01*
X00164696Y00706000D01*
X00172313D01*
X00119382Y00657313D02*
X00134618D01*
Y00649696D01*
X00132078Y00647157D01*
X00127000D01*
X00124461Y00649696D01*
Y00657313D01*
Y00652235D02*
X00119382Y00647157D01*
Y00631922D02*
Y00642078D01*
X00129539Y00631922D01*
X00132078D01*
X00134618Y00634461D01*
Y00639539D01*
X00132078Y00642078D01*
Y00626843D02*
X00134618Y00624304D01*
Y00619226D01*
X00132078Y00616687D01*
X00129539D01*
X00127000Y00619226D01*
X00124461Y00616687D01*
X00121922D01*
X00119382Y00619226D01*
Y00624304D01*
X00121922Y00626843D01*
X00124461D01*
X00127000Y00624304D01*
X00129539Y00626843D01*
X00132078D01*
X00127000Y00624304D02*
Y00619226D01*
X00256687Y00685382D02*
Y00700618D01*
X00264304D01*
X00266843Y00698078D01*
Y00693000D01*
X00264304Y00690461D01*
X00256687D01*
X00261765D02*
X00266843Y00685382D01*
X00282078D02*
X00271922D01*
X00282078Y00695539D01*
Y00698078D01*
X00279539Y00700618D01*
X00274461D01*
X00271922Y00698078D01*
X00287157Y00700618D02*
X00297313D01*
Y00698078D01*
X00287157Y00687922D01*
Y00685382D01*
X00096383Y00656313D02*
X00111617D01*
Y00648696D01*
X00109078Y00646157D01*
X00104000D01*
X00101461Y00648696D01*
Y00656313D01*
Y00651235D02*
X00096383Y00646157D01*
Y00630922D02*
Y00641078D01*
X00106539Y00630922D01*
X00109078D01*
X00111617Y00633461D01*
Y00638539D01*
X00109078Y00641078D01*
X00111617Y00615687D02*
X00109078Y00620765D01*
X00104000Y00625843D01*
X00098922D01*
X00096383Y00623304D01*
Y00618226D01*
X00098922Y00615687D01*
X00101461D01*
X00104000Y00618226D01*
Y00625843D01*
X00040382Y00672313D02*
X00055617D01*
Y00664696D01*
X00053078Y00662157D01*
X00048000D01*
X00045461Y00664696D01*
Y00672313D01*
Y00667235D02*
X00040382Y00662157D01*
Y00646922D02*
Y00657078D01*
X00050539Y00646922D01*
X00053078D01*
X00055617Y00649461D01*
Y00654539D01*
X00053078Y00657078D01*
X00055617Y00631687D02*
Y00641843D01*
X00048000D01*
X00050539Y00636765D01*
Y00634226D01*
X00048000Y00631687D01*
X00042922D01*
X00040382Y00634226D01*
Y00639304D01*
X00042922Y00641843D01*
X00035617Y00652687D02*
X00020382D01*
Y00660304D01*
X00022922Y00662843D01*
X00028000D01*
X00030539Y00660304D01*
Y00652687D01*
Y00657765D02*
X00035617Y00662843D01*
Y00678078D02*
Y00667922D01*
X00025461Y00678078D01*
X00022922D01*
X00020382Y00675539D01*
Y00670461D01*
X00022922Y00667922D01*
X00035617Y00690774D02*
X00020382D01*
X00028000Y00683157D01*
Y00693313D01*
X00036618Y00605687D02*
X00021383D01*
Y00613304D01*
X00023922Y00615843D01*
X00029000D01*
X00031539Y00613304D01*
Y00605687D01*
Y00610765D02*
X00036618Y00615843D01*
Y00631078D02*
Y00620922D01*
X00026461Y00631078D01*
X00023922D01*
X00021383Y00628539D01*
Y00623461D01*
X00023922Y00620922D01*
Y00636157D02*
X00021383Y00638696D01*
Y00643774D01*
X00023922Y00646313D01*
X00026461D01*
X00029000Y00643774D01*
Y00641235D01*
Y00643774D01*
X00031539Y00646313D01*
X00034078D01*
X00036618Y00643774D01*
Y00638696D01*
X00034078Y00636157D01*
X00032617Y00497687D02*
X00017382D01*
Y00505304D01*
X00019922Y00507843D01*
X00025000D01*
X00027539Y00505304D01*
Y00497687D01*
Y00502765D02*
X00032617Y00507843D01*
Y00523078D02*
Y00512922D01*
X00022461Y00523078D01*
X00019922D01*
X00017382Y00520539D01*
Y00515461D01*
X00019922Y00512922D01*
X00032617Y00538313D02*
Y00528157D01*
X00022461Y00538313D01*
X00019922D01*
X00017382Y00535774D01*
Y00530696D01*
X00019922Y00528157D01*
X00486226Y00541382D02*
Y00556618D01*
X00493843D01*
X00496382Y00554078D01*
Y00549000D01*
X00493843Y00546461D01*
X00486226D01*
X00491304D02*
X00496382Y00541382D01*
X00511618D02*
X00501461D01*
X00511618Y00551539D01*
Y00554078D01*
X00509078Y00556618D01*
X00504000D01*
X00501461Y00554078D01*
X00516696Y00541382D02*
X00521774D01*
X00519235D01*
Y00556618D01*
X00516696Y00554078D01*
X00485687Y00603382D02*
Y00618618D01*
X00493304D01*
X00495843Y00616078D01*
Y00611000D01*
X00493304Y00608461D01*
X00485687D01*
X00490765D02*
X00495843Y00603382D01*
X00511078D02*
X00500922D01*
X00511078Y00613539D01*
Y00616078D01*
X00508539Y00618618D01*
X00503461D01*
X00500922Y00616078D01*
X00516157D02*
X00518696Y00618618D01*
X00523774D01*
X00526313Y00616078D01*
Y00605922D01*
X00523774Y00603382D01*
X00518696D01*
X00516157Y00605922D01*
Y00616078D01*
X00467956Y00686382D02*
Y00701618D01*
X00475574D01*
X00478113Y00699078D01*
Y00694000D01*
X00475574Y00691461D01*
X00467956D01*
X00473035D02*
X00478113Y00686382D01*
X00483191D02*
X00488270D01*
X00485730D01*
Y00701618D01*
X00483191Y00699078D01*
X00495887Y00688922D02*
X00498426Y00686382D01*
X00503505D01*
X00506044Y00688922D01*
Y00699078D01*
X00503505Y00701618D01*
X00498426D01*
X00495887Y00699078D01*
Y00696539D01*
X00498426Y00694000D01*
X00506044D01*
X00341956Y00672382D02*
Y00687617D01*
X00349574D01*
X00352113Y00685078D01*
Y00680000D01*
X00349574Y00677461D01*
X00341956D01*
X00347034D02*
X00352113Y00672382D01*
X00357191D02*
X00362270D01*
X00359730D01*
Y00687617D01*
X00357191Y00685078D01*
X00369887D02*
X00372426Y00687617D01*
X00377505D01*
X00380044Y00685078D01*
Y00682539D01*
X00377505Y00680000D01*
X00380044Y00677461D01*
Y00674922D01*
X00377505Y00672382D01*
X00372426D01*
X00369887Y00674922D01*
Y00677461D01*
X00372426Y00680000D01*
X00369887Y00682539D01*
Y00685078D01*
X00372426Y00680000D02*
X00377505D01*
X00438382Y00698044D02*
X00453618D01*
Y00690426D01*
X00451078Y00687887D01*
X00446000D01*
X00443461Y00690426D01*
Y00698044D01*
Y00692965D02*
X00438382Y00687887D01*
Y00682809D02*
Y00677730D01*
Y00680270D01*
X00453618D01*
X00451078Y00682809D01*
X00453618Y00670113D02*
Y00659956D01*
X00451078D01*
X00440922Y00670113D01*
X00438382D01*
X00404252Y00677995D02*
X00416248D01*
Y00671997D01*
X00414249Y00669998D01*
X00410250D01*
X00408251Y00671997D01*
Y00677995D01*
Y00673996D02*
X00404252Y00669998D01*
Y00665999D02*
Y00662000D01*
Y00664000D01*
X00416248D01*
X00414249Y00665999D01*
X00416248Y00648005D02*
X00414249Y00652003D01*
X00410250Y00656002D01*
X00406251D01*
X00404252Y00654003D01*
Y00650004D01*
X00406251Y00648005D01*
X00408251D01*
X00410250Y00650004D01*
Y00656002D01*
X00349956Y00614383D02*
Y00629618D01*
X00357574D01*
X00360113Y00627078D01*
Y00622000D01*
X00357574Y00619461D01*
X00349956D01*
X00355034D02*
X00360113Y00614383D01*
X00365191D02*
X00370270D01*
X00367730D01*
Y00629618D01*
X00365191Y00627078D01*
X00388044Y00629618D02*
X00377887D01*
Y00622000D01*
X00382966Y00624539D01*
X00385505D01*
X00388044Y00622000D01*
Y00616922D01*
X00385505Y00614383D01*
X00380426D01*
X00377887Y00616922D01*
X00391956Y00614383D02*
Y00629618D01*
X00399574D01*
X00402113Y00627078D01*
Y00622000D01*
X00399574Y00619461D01*
X00391956D01*
X00397034D02*
X00402113Y00614383D01*
X00407191D02*
X00412270D01*
X00409730D01*
Y00629618D01*
X00407191Y00627078D01*
X00427505Y00614383D02*
Y00629618D01*
X00419887Y00622000D01*
X00430044D01*
X00383005Y00692002D02*
Y00703998D01*
X00389003D01*
X00391002Y00701999D01*
Y00698000D01*
X00389003Y00696001D01*
X00383005D01*
X00387004D02*
X00391002Y00692002D01*
X00395001D02*
X00399000D01*
X00397000D01*
Y00703998D01*
X00395001Y00701999D01*
X00404998D02*
X00406997Y00703998D01*
X00410996D01*
X00412995Y00701999D01*
Y00699999D01*
X00410996Y00698000D01*
X00408996D01*
X00410996D01*
X00412995Y00696001D01*
Y00694001D01*
X00410996Y00692002D01*
X00406997D01*
X00404998Y00694001D01*
X00201956Y00648382D02*
Y00663617D01*
X00209574D01*
X00212113Y00661078D01*
Y00656000D01*
X00209574Y00653461D01*
X00201956D01*
X00207034D02*
X00212113Y00648382D01*
X00217191D02*
X00222270D01*
X00219730D01*
Y00663617D01*
X00217191Y00661078D01*
X00240044Y00648382D02*
X00229887D01*
X00240044Y00658539D01*
Y00661078D01*
X00237505Y00663617D01*
X00232426D01*
X00229887Y00661078D01*
X00163495Y00648382D02*
Y00663617D01*
X00171113D01*
X00173652Y00661078D01*
Y00656000D01*
X00171113Y00653461D01*
X00163495D01*
X00168574D02*
X00173652Y00648382D01*
X00178730D02*
X00183809D01*
X00181270D01*
Y00663617D01*
X00178730Y00661078D01*
X00191426Y00648382D02*
X00196505D01*
X00193965D01*
Y00663617D01*
X00191426Y00661078D01*
X00295956Y00426632D02*
Y00441867D01*
X00303574D01*
X00306113Y00439328D01*
Y00434250D01*
X00303574Y00431711D01*
X00295956D01*
X00301035D02*
X00306113Y00426632D01*
X00311191D02*
X00316270D01*
X00313731D01*
Y00441867D01*
X00311191Y00439328D01*
X00323887D02*
X00326426Y00441867D01*
X00331505D01*
X00334044Y00439328D01*
Y00429172D01*
X00331505Y00426632D01*
X00326426D01*
X00323887Y00429172D01*
Y00439328D01*
X00263998Y00573003D02*
X00252002D01*
Y00579001D01*
X00254001Y00581001D01*
X00258000D01*
X00259999Y00579001D01*
Y00573003D01*
Y00577002D02*
X00263998Y00581001D01*
X00261999Y00584999D02*
X00263998Y00586999D01*
Y00590997D01*
X00261999Y00592997D01*
X00254001D01*
X00252002Y00590997D01*
Y00586999D01*
X00254001Y00584999D01*
X00256001D01*
X00258000Y00586999D01*
Y00592997D01*
X00147304Y00495382D02*
Y00510617D01*
X00154922D01*
X00157461Y00508078D01*
Y00503000D01*
X00154922Y00500461D01*
X00147304D01*
X00152382D02*
X00157461Y00495382D01*
X00162539Y00508078D02*
X00165078Y00510617D01*
X00170157D01*
X00172696Y00508078D01*
Y00505539D01*
X00170157Y00503000D01*
X00172696Y00500461D01*
Y00497922D01*
X00170157Y00495382D01*
X00165078D01*
X00162539Y00497922D01*
Y00500461D01*
X00165078Y00503000D01*
X00162539Y00505539D01*
Y00508078D01*
X00165078Y00503000D02*
X00170157D01*
X00176618Y00555304D02*
X00161382D01*
Y00562922D01*
X00163922Y00565461D01*
X00169000D01*
X00171539Y00562922D01*
Y00555304D01*
Y00560382D02*
X00176618Y00565461D01*
X00161382Y00570539D02*
Y00580696D01*
X00163922D01*
X00174078Y00570539D01*
X00176618D01*
X00234002Y00589997D02*
X00245998D01*
Y00583999D01*
X00243999Y00581999D01*
X00240000D01*
X00238001Y00583999D01*
Y00589997D01*
Y00585998D02*
X00234002Y00581999D01*
X00245998Y00570003D02*
X00243999Y00574002D01*
X00240000Y00578001D01*
X00236001D01*
X00234002Y00576001D01*
Y00572002D01*
X00236001Y00570003D01*
X00238001D01*
X00240000Y00572002D01*
Y00578001D01*
X00547304Y00176383D02*
Y00191618D01*
X00554922D01*
X00557461Y00189078D01*
Y00184000D01*
X00554922Y00181461D01*
X00547304D01*
X00552383D02*
X00557461Y00176383D01*
X00572696Y00191618D02*
X00562539D01*
Y00184000D01*
X00567617Y00186539D01*
X00570157D01*
X00572696Y00184000D01*
Y00178922D01*
X00570157Y00176383D01*
X00565078D01*
X00562539Y00178922D01*
X00547304Y00155382D02*
Y00170618D01*
X00554922D01*
X00557461Y00168078D01*
Y00163000D01*
X00554922Y00160461D01*
X00547304D01*
X00552383D02*
X00557461Y00155382D01*
X00570157D02*
Y00170618D01*
X00562539Y00163000D01*
X00572696D01*
X00257304Y00130382D02*
Y00145618D01*
X00264922D01*
X00267461Y00143078D01*
Y00138000D01*
X00264922Y00135461D01*
X00257304D01*
X00262383D02*
X00267461Y00130382D01*
X00272539Y00143078D02*
X00275078Y00145618D01*
X00280157D01*
X00282696Y00143078D01*
Y00140539D01*
X00280157Y00138000D01*
X00277617D01*
X00280157D01*
X00282696Y00135461D01*
Y00132922D01*
X00280157Y00130382D01*
X00275078D01*
X00272539Y00132922D01*
X00312618Y00154304D02*
X00297383D01*
Y00161922D01*
X00299922Y00164461D01*
X00305000D01*
X00307539Y00161922D01*
Y00154304D01*
Y00159382D02*
X00312618Y00164461D01*
Y00179696D02*
Y00169539D01*
X00302461Y00179696D01*
X00299922D01*
X00297383Y00177157D01*
Y00172078D01*
X00299922Y00169539D01*
X00466843Y00308382D02*
Y00323618D01*
X00474461D01*
X00477000Y00321078D01*
Y00316000D01*
X00474461Y00313461D01*
X00466843D01*
X00471922D02*
X00477000Y00308382D01*
X00482078D02*
X00487157D01*
X00484618D01*
Y00323618D01*
X00482078Y00321078D01*
X00173461Y00254922D02*
Y00265078D01*
X00170922Y00267617D01*
X00165843D01*
X00163304Y00265078D01*
Y00254922D01*
X00165843Y00252383D01*
X00170922D01*
X00168382Y00257461D02*
X00173461Y00252383D01*
X00170922D02*
X00173461Y00254922D01*
X00186157Y00252383D02*
Y00267617D01*
X00178539Y00260000D01*
X00188696D01*
X00179461Y00118922D02*
Y00129078D01*
X00176922Y00131617D01*
X00171843D01*
X00169304Y00129078D01*
Y00118922D01*
X00171843Y00116382D01*
X00176922D01*
X00174382Y00121461D02*
X00179461Y00116382D01*
X00176922D02*
X00179461Y00118922D01*
X00184539Y00129078D02*
X00187078Y00131617D01*
X00192157D01*
X00194696Y00129078D01*
Y00126539D01*
X00192157Y00124000D01*
X00189618D01*
X00192157D01*
X00194696Y00121461D01*
Y00118922D01*
X00192157Y00116382D01*
X00187078D01*
X00184539Y00118922D01*
X00060078Y00229461D02*
X00049922D01*
X00047382Y00226922D01*
Y00221843D01*
X00049922Y00219304D01*
X00060078D01*
X00062618Y00221843D01*
Y00226922D01*
X00057539Y00224382D02*
X00062618Y00229461D01*
Y00226922D02*
X00060078Y00229461D01*
X00062618Y00244696D02*
Y00234539D01*
X00052461Y00244696D01*
X00049922D01*
X00047382Y00242157D01*
Y00237078D01*
X00049922Y00234539D01*
X00083000Y00119922D02*
Y00130078D01*
X00080461Y00132618D01*
X00075382D01*
X00072843Y00130078D01*
Y00119922D01*
X00075382Y00117382D01*
X00080461D01*
X00077922Y00122461D02*
X00083000Y00117382D01*
X00080461D02*
X00083000Y00119922D01*
X00088078Y00117382D02*
X00093157D01*
X00090618D01*
Y00132618D01*
X00088078Y00130078D01*
X00047843Y00387617D02*
Y00372383D01*
X00058000D01*
X00063078D02*
X00068157D01*
X00065618D01*
Y00387617D01*
X00063078Y00385078D01*
X00174304Y00490618D02*
Y00475382D01*
X00181922D01*
X00184461Y00477922D01*
Y00488078D01*
X00181922Y00490618D01*
X00174304D01*
X00189539Y00477922D02*
X00192078Y00475382D01*
X00197157D01*
X00199696Y00477922D01*
Y00488078D01*
X00197157Y00490618D01*
X00192078D01*
X00189539Y00488078D01*
Y00485539D01*
X00192078Y00483000D01*
X00199696D01*
X00129304Y00489618D02*
Y00474383D01*
X00136922D01*
X00139461Y00476922D01*
Y00487078D01*
X00136922Y00489618D01*
X00129304D01*
X00144539Y00487078D02*
X00147078Y00489618D01*
X00152157D01*
X00154696Y00487078D01*
Y00484539D01*
X00152157Y00482000D01*
X00154696Y00479461D01*
Y00476922D01*
X00152157Y00474383D01*
X00147078D01*
X00144539Y00476922D01*
Y00479461D01*
X00147078Y00482000D01*
X00144539Y00484539D01*
Y00487078D01*
X00147078Y00482000D02*
X00152157D01*
X00029304Y00489618D02*
Y00474383D01*
X00036922D01*
X00039461Y00476922D01*
Y00487078D01*
X00036922Y00489618D01*
X00029304D01*
X00044539D02*
X00054696D01*
Y00487078D01*
X00044539Y00476922D01*
Y00474383D01*
X00078304Y00488618D02*
Y00473382D01*
X00085922D01*
X00088461Y00475922D01*
Y00486078D01*
X00085922Y00488618D01*
X00078304D01*
X00103696D02*
X00098617Y00486078D01*
X00093539Y00481000D01*
Y00475922D01*
X00096078Y00473382D01*
X00101157D01*
X00103696Y00475922D01*
Y00478461D01*
X00101157Y00481000D01*
X00093539D01*
X00243618Y00623696D02*
X00228382D01*
Y00616078D01*
X00230922Y00613539D01*
X00241078D01*
X00243618Y00616078D01*
Y00623696D01*
Y00598304D02*
Y00608461D01*
X00236000D01*
X00238539Y00603382D01*
Y00600843D01*
X00236000Y00598304D01*
X00230922D01*
X00228382Y00600843D01*
Y00605922D01*
X00230922Y00608461D01*
X00206382Y00193304D02*
X00221618D01*
Y00200922D01*
X00219078Y00203461D01*
X00208922D01*
X00206382Y00200922D01*
Y00193304D01*
X00221618Y00216157D02*
X00206382D01*
X00214000Y00208539D01*
Y00218696D01*
X00205382Y00163304D02*
X00220618D01*
Y00170922D01*
X00218078Y00173461D01*
X00207922D01*
X00205382Y00170922D01*
Y00163304D01*
X00207922Y00178539D02*
X00205382Y00181078D01*
Y00186157D01*
X00207922Y00188696D01*
X00210461D01*
X00213000Y00186157D01*
Y00183617D01*
Y00186157D01*
X00215539Y00188696D01*
X00218078D01*
X00220618Y00186157D01*
Y00181078D01*
X00218078Y00178539D01*
X00119382Y00195304D02*
X00134618D01*
Y00202922D01*
X00132078Y00205461D01*
X00121922D01*
X00119382Y00202922D01*
Y00195304D01*
X00134618Y00220696D02*
Y00210539D01*
X00124461Y00220696D01*
X00121922D01*
X00119382Y00218157D01*
Y00213078D01*
X00121922Y00210539D01*
X00120382Y00170843D02*
X00135618D01*
Y00178461D01*
X00133078Y00181000D01*
X00122922D01*
X00120382Y00178461D01*
Y00170843D01*
X00135618Y00186078D02*
Y00191157D01*
Y00188618D01*
X00120382D01*
X00122922Y00186078D01*
X00308843Y00275078D02*
X00306304Y00277618D01*
X00301226D01*
X00298687Y00275078D01*
Y00264922D01*
X00301226Y00262383D01*
X00306304D01*
X00308843Y00264922D01*
X00324078Y00262383D02*
X00313922D01*
X00324078Y00272539D01*
Y00275078D01*
X00321539Y00277618D01*
X00316461D01*
X00313922Y00275078D01*
X00329157Y00277618D02*
X00339314D01*
Y00275078D01*
X00329157Y00264922D01*
Y00262383D01*
X00313843Y00219078D02*
X00311304Y00221618D01*
X00306226D01*
X00303687Y00219078D01*
Y00208922D01*
X00306226Y00206383D01*
X00311304D01*
X00313843Y00208922D01*
X00329078Y00206383D02*
X00318922D01*
X00329078Y00216539D01*
Y00219078D01*
X00326539Y00221618D01*
X00321461D01*
X00318922Y00219078D01*
X00344314Y00221618D02*
X00339235Y00219078D01*
X00334157Y00214000D01*
Y00208922D01*
X00336696Y00206383D01*
X00341774D01*
X00344314Y00208922D01*
Y00211461D01*
X00341774Y00214000D01*
X00334157D01*
X00064922Y00400843D02*
X00062382Y00398304D01*
Y00393226D01*
X00064922Y00390687D01*
X00075078D01*
X00077618Y00393226D01*
Y00398304D01*
X00075078Y00400843D01*
X00077618Y00416078D02*
Y00405922D01*
X00067461Y00416078D01*
X00064922D01*
X00062382Y00413539D01*
Y00408461D01*
X00064922Y00405922D01*
X00077618Y00428774D02*
X00062382D01*
X00070000Y00421157D01*
Y00431313D01*
X00196922Y00343843D02*
X00194382Y00341304D01*
Y00336226D01*
X00196922Y00333687D01*
X00207078D01*
X00209618Y00336226D01*
Y00341304D01*
X00207078Y00343843D01*
X00209618Y00359078D02*
Y00348922D01*
X00199461Y00359078D01*
X00196922D01*
X00194382Y00356539D01*
Y00351461D01*
X00196922Y00348922D01*
Y00364157D02*
X00194382Y00366696D01*
Y00371774D01*
X00196922Y00374313D01*
X00199461D01*
X00202000Y00371774D01*
Y00369235D01*
Y00371774D01*
X00204539Y00374313D01*
X00207078D01*
X00209618Y00371774D01*
Y00366696D01*
X00207078Y00364157D01*
X00279922Y00162843D02*
X00277383Y00160304D01*
Y00155226D01*
X00279922Y00152687D01*
X00290078D01*
X00292618Y00155226D01*
Y00160304D01*
X00290078Y00162843D01*
X00292618Y00178078D02*
Y00167922D01*
X00282461Y00178078D01*
X00279922D01*
X00277383Y00175539D01*
Y00170461D01*
X00279922Y00167922D01*
X00292618Y00193314D02*
Y00183157D01*
X00282461Y00193314D01*
X00279922D01*
X00277383Y00190774D01*
Y00185696D01*
X00279922Y00183157D01*
X00088078Y00660618D02*
X00090618Y00663157D01*
Y00668235D01*
X00088078Y00670774D01*
X00077922D01*
X00075382Y00668235D01*
Y00663157D01*
X00077922Y00660618D01*
X00075382Y00645382D02*
Y00655539D01*
X00085539Y00645382D01*
X00088078D01*
X00090618Y00647922D01*
Y00653000D01*
X00088078Y00655539D01*
X00075382Y00640304D02*
Y00635226D01*
Y00637765D01*
X00090618D01*
X00088078Y00640304D01*
X00054843Y00619078D02*
X00052304Y00621618D01*
X00047226D01*
X00044687Y00619078D01*
Y00608922D01*
X00047226Y00606382D01*
X00052304D01*
X00054843Y00608922D01*
X00070078Y00606382D02*
X00059922D01*
X00070078Y00616539D01*
Y00619078D01*
X00067539Y00621618D01*
X00062461D01*
X00059922Y00619078D01*
X00075157D02*
X00077696Y00621618D01*
X00082774D01*
X00085313Y00619078D01*
Y00608922D01*
X00082774Y00606382D01*
X00077696D01*
X00075157Y00608922D01*
Y00619078D01*
X00079002Y00714999D02*
X00077003Y00716998D01*
X00073004D01*
X00071005Y00714999D01*
Y00707001D01*
X00073004Y00705002D01*
X00077003D01*
X00079002Y00707001D01*
X00083001Y00705002D02*
X00087000D01*
X00085000D01*
Y00716998D01*
X00083001Y00714999D01*
X00092998Y00707001D02*
X00094997Y00705002D01*
X00098996D01*
X00100995Y00707001D01*
Y00714999D01*
X00098996Y00716998D01*
X00094997D01*
X00092998Y00714999D01*
Y00712999D01*
X00094997Y00711000D01*
X00100995D01*
X00038922Y00548113D02*
X00036382Y00545574D01*
Y00540495D01*
X00038922Y00537956D01*
X00049078D01*
X00051617Y00540495D01*
Y00545574D01*
X00049078Y00548113D01*
X00051617Y00553191D02*
Y00558270D01*
Y00555730D01*
X00036382D01*
X00038922Y00553191D01*
Y00565887D02*
X00036382Y00568426D01*
Y00573505D01*
X00038922Y00576044D01*
X00041461D01*
X00044000Y00573505D01*
X00046539Y00576044D01*
X00049078D01*
X00051617Y00573505D01*
Y00568426D01*
X00049078Y00565887D01*
X00046539D01*
X00044000Y00568426D01*
X00041461Y00565887D01*
X00038922D01*
X00044000Y00568426D02*
Y00573505D01*
X00498113Y00574078D02*
X00495574Y00576618D01*
X00490495D01*
X00487956Y00574078D01*
Y00563922D01*
X00490495Y00561382D01*
X00495574D01*
X00498113Y00563922D01*
X00503191Y00561382D02*
X00508270D01*
X00505730D01*
Y00576618D01*
X00503191Y00574078D01*
X00515887Y00576618D02*
X00526044D01*
Y00574078D01*
X00515887Y00563922D01*
Y00561382D01*
X00451078Y00618887D02*
X00453618Y00621426D01*
Y00626505D01*
X00451078Y00629044D01*
X00440922D01*
X00438382Y00626505D01*
Y00621426D01*
X00440922Y00618887D01*
X00438382Y00613809D02*
Y00608730D01*
Y00611270D01*
X00453618D01*
X00451078Y00613809D01*
X00453618Y00590956D02*
X00451078Y00596035D01*
X00446000Y00601113D01*
X00440922D01*
X00438382Y00598574D01*
Y00593495D01*
X00440922Y00590956D01*
X00443461D01*
X00446000Y00593495D01*
Y00601113D01*
X00347002Y00704999D02*
X00345003Y00706998D01*
X00341004D01*
X00339005Y00704999D01*
Y00697001D01*
X00341004Y00695002D01*
X00345003D01*
X00347002Y00697001D01*
X00351001Y00695002D02*
X00355000D01*
X00353000D01*
Y00706998D01*
X00351001Y00704999D01*
X00368995Y00706998D02*
X00360998D01*
Y00701000D01*
X00364996Y00702999D01*
X00366996D01*
X00368995Y00701000D01*
Y00697001D01*
X00366996Y00695002D01*
X00362997D01*
X00360998Y00697001D01*
X00150113Y00624078D02*
X00147574Y00626618D01*
X00142495D01*
X00139956Y00624078D01*
Y00613922D01*
X00142495Y00611382D01*
X00147574D01*
X00150113Y00613922D01*
X00155191Y00611382D02*
X00160270D01*
X00157730D01*
Y00626618D01*
X00155191Y00624078D01*
X00175505Y00611382D02*
Y00626618D01*
X00167887Y00619000D01*
X00178044D01*
X00306113Y00571078D02*
X00303574Y00573618D01*
X00298495D01*
X00295956Y00571078D01*
Y00560922D01*
X00298495Y00558382D01*
X00303574D01*
X00306113Y00560922D01*
X00311191Y00558382D02*
X00316270D01*
X00313730D01*
Y00573618D01*
X00311191Y00571078D01*
X00323887D02*
X00326426Y00573618D01*
X00331505D01*
X00334044Y00571078D01*
Y00568539D01*
X00331505Y00566000D01*
X00328965D01*
X00331505D01*
X00334044Y00563461D01*
Y00560922D01*
X00331505Y00558382D01*
X00326426D01*
X00323887Y00560922D01*
X00187113Y00507078D02*
X00184574Y00509618D01*
X00179495D01*
X00176956Y00507078D01*
Y00496922D01*
X00179495Y00494383D01*
X00184574D01*
X00187113Y00496922D01*
X00192191Y00494383D02*
X00197270D01*
X00194730D01*
Y00509618D01*
X00192191Y00507078D01*
X00215044Y00494383D02*
X00204887D01*
X00215044Y00504539D01*
Y00507078D01*
X00212505Y00509618D01*
X00207426D01*
X00204887Y00507078D01*
X00233078Y00504348D02*
X00235618Y00506887D01*
Y00511965D01*
X00233078Y00514505D01*
X00222922D01*
X00220382Y00511965D01*
Y00506887D01*
X00222922Y00504348D01*
X00220382Y00499270D02*
Y00494191D01*
Y00496730D01*
X00235618D01*
X00233078Y00499270D01*
X00220382Y00486574D02*
Y00481495D01*
Y00484035D01*
X00235618D01*
X00233078Y00486574D01*
X00142922Y00579113D02*
X00140382Y00576574D01*
Y00571495D01*
X00142922Y00568956D01*
X00153078D01*
X00155618Y00571495D01*
Y00576574D01*
X00153078Y00579113D01*
X00155618Y00584191D02*
Y00589270D01*
Y00586730D01*
X00140382D01*
X00142922Y00584191D01*
Y00596887D02*
X00140382Y00599426D01*
Y00604505D01*
X00142922Y00607044D01*
X00153078D01*
X00155618Y00604505D01*
Y00599426D01*
X00153078Y00596887D01*
X00142922D01*
X00361061Y00234078D02*
X00358522Y00236618D01*
X00353443D01*
X00350904Y00234078D01*
Y00223922D01*
X00353443Y00221383D01*
X00358522D01*
X00361061Y00223922D01*
X00366139Y00234078D02*
X00368678Y00236618D01*
X00373757D01*
X00376296Y00234078D01*
Y00231539D01*
X00373757Y00229000D01*
X00376296Y00226461D01*
Y00223922D01*
X00373757Y00221383D01*
X00368678D01*
X00366139Y00223922D01*
Y00226461D01*
X00368678Y00229000D01*
X00366139Y00231539D01*
Y00234078D01*
X00368678Y00229000D02*
X00373757D01*
X00318922Y00164461D02*
X00316383Y00161922D01*
Y00156843D01*
X00318922Y00154304D01*
X00329078D01*
X00331618Y00156843D01*
Y00161922D01*
X00329078Y00164461D01*
X00316383Y00169539D02*
Y00179696D01*
X00318922D01*
X00329078Y00169539D01*
X00331618D01*
X00510461Y00329678D02*
X00507922Y00332217D01*
X00502843D01*
X00500304Y00329678D01*
Y00319522D01*
X00502843Y00316982D01*
X00507922D01*
X00510461Y00319522D01*
X00525696Y00332217D02*
X00520618Y00329678D01*
X00515539Y00324600D01*
Y00319522D01*
X00518078Y00316982D01*
X00523157D01*
X00525696Y00319522D01*
Y00322061D01*
X00523157Y00324600D01*
X00515539D01*
X00497922Y00268461D02*
X00495382Y00265922D01*
Y00260843D01*
X00497922Y00258304D01*
X00508078D01*
X00510617Y00260843D01*
Y00265922D01*
X00508078Y00268461D01*
X00495382Y00283696D02*
Y00273539D01*
X00503000D01*
X00500461Y00278617D01*
Y00281157D01*
X00503000Y00283696D01*
X00508078D01*
X00510617Y00281157D01*
Y00276078D01*
X00508078Y00273539D01*
X00170922Y00345461D02*
X00168382Y00342922D01*
Y00337843D01*
X00170922Y00335304D01*
X00181078D01*
X00183618Y00337843D01*
Y00342922D01*
X00181078Y00345461D01*
X00183618Y00358157D02*
X00168382D01*
X00176000Y00350539D01*
Y00360696D01*
X00152922Y00345461D02*
X00150382Y00342922D01*
Y00337843D01*
X00152922Y00335304D01*
X00163078D01*
X00165618Y00337843D01*
Y00342922D01*
X00163078Y00345461D01*
X00152922Y00350539D02*
X00150382Y00353078D01*
Y00358157D01*
X00152922Y00360696D01*
X00155461D01*
X00158000Y00358157D01*
Y00355617D01*
Y00358157D01*
X00160539Y00360696D01*
X00163078D01*
X00165618Y00358157D01*
Y00353078D01*
X00163078Y00350539D01*
X00134922Y00346461D02*
X00132382Y00343922D01*
Y00338843D01*
X00134922Y00336304D01*
X00145078D01*
X00147618Y00338843D01*
Y00343922D01*
X00145078Y00346461D01*
X00147618Y00361696D02*
Y00351539D01*
X00137461Y00361696D01*
X00134922D01*
X00132382Y00359157D01*
Y00354078D01*
X00134922Y00351539D01*
X00116922Y00347000D02*
X00114382Y00344461D01*
Y00339383D01*
X00116922Y00336843D01*
X00127078D01*
X00129618Y00339383D01*
Y00344461D01*
X00127078Y00347000D01*
X00129618Y00352078D02*
Y00357157D01*
Y00354618D01*
X00114382D01*
X00116922Y00352078D01*
X00049304Y00055617D02*
Y00042922D01*
X00051843Y00040382D01*
X00056922D01*
X00059461Y00042922D01*
Y00055617D01*
X00074696Y00040382D02*
X00064539D01*
X00074696Y00050539D01*
Y00053078D01*
X00072157Y00055617D01*
X00067078D01*
X00064539Y00053078D01*
D15*
X00455925Y00252892D02*
X00447461Y00261356D01*
X00455925D02*
X00447461Y00252892D01*
X00455925Y00257124D02*
X00447461D01*
X00451693Y00261356D02*
Y00252892D01*
M02*
