G04*
G04 #@! TF.GenerationSoftware,Altium Limited,Altium Designer,21.8.1 (53)*
G04*
G04 Layer_Physical_Order=2*
G04 Layer_Color=16711680*
%FSAX44Y44*%
%MOMM*%
G71*
G04*
G04 #@! TF.SameCoordinates,32BA2F72-2B31-4227-8ABE-CAB74C13F427*
G04*
G04*
G04 #@! TF.FilePolarity,Positive*
G04*
G01*
G75*
%ADD10C,0.2000*%
%ADD13C,0.2540*%
%ADD60C,0.5000*%
%ADD61C,0.9000*%
%ADD62C,0.8000*%
%ADD64C,0.8000*%
%ADD65O,1.0000X2.0000*%
%ADD66R,1.5240X1.5240*%
%ADD67C,1.5240*%
%ADD68C,1.2700*%
G36*
X00591931Y00469000D02*
X00315556D01*
Y00598284D01*
X00345922Y00628650D01*
X00347231D01*
X00349609Y00629287D01*
X00351741Y00630518D01*
X00353482Y00632259D01*
X00354713Y00634391D01*
X00355010Y00635500D01*
X00346000D01*
Y00638000D01*
X00343500D01*
Y00647010D01*
X00342391Y00646713D01*
X00340259Y00645482D01*
X00338518Y00643741D01*
X00337287Y00641609D01*
X00336650Y00639231D01*
Y00637922D01*
X00304364Y00605636D01*
X00303322Y00604278D01*
X00302667Y00602697D01*
X00302444Y00601000D01*
Y00469000D01*
X00285588D01*
Y00564000D01*
X00285239Y00565756D01*
X00284244Y00567244D01*
X00259588Y00591900D01*
Y00631007D01*
X00260127Y00631318D01*
X00261682Y00632873D01*
X00262781Y00634777D01*
X00263350Y00636901D01*
Y00639099D01*
X00262781Y00641223D01*
X00261682Y00643127D01*
X00260127Y00644682D01*
X00259588Y00644993D01*
Y00689100D01*
X00273300Y00702811D01*
X00273901Y00702650D01*
X00276099D01*
X00278223Y00703219D01*
X00280127Y00704318D01*
X00281682Y00705873D01*
X00281993Y00706412D01*
X00313100D01*
X00362412Y00657100D01*
Y00624023D01*
X00350739Y00612350D01*
X00348901D01*
X00346777Y00611781D01*
X00344873Y00610682D01*
X00343318Y00609127D01*
X00342219Y00607223D01*
X00341650Y00605099D01*
Y00602901D01*
X00342219Y00600777D01*
X00343318Y00598873D01*
X00344873Y00597318D01*
X00346777Y00596219D01*
X00348901Y00595650D01*
X00351099D01*
X00353223Y00596219D01*
X00355127Y00597318D01*
X00356682Y00598873D01*
X00357781Y00600777D01*
X00358350Y00602901D01*
Y00605099D01*
X00357952Y00606586D01*
X00370244Y00618878D01*
X00371239Y00620367D01*
X00371588Y00622122D01*
Y00658330D01*
X00372858Y00658670D01*
X00373318Y00657873D01*
X00374873Y00656318D01*
X00376777Y00655219D01*
X00378901Y00654650D01*
X00381099D01*
X00383223Y00655219D01*
X00385127Y00656318D01*
X00386682Y00657873D01*
X00387717Y00659666D01*
X00395283D01*
X00396318Y00657873D01*
X00397873Y00656318D01*
X00399777Y00655219D01*
X00401901Y00654650D01*
X00404099D01*
X00406223Y00655219D01*
X00408127Y00656318D01*
X00409682Y00657873D01*
X00410781Y00659777D01*
X00411350Y00661901D01*
Y00664099D01*
X00410781Y00666223D01*
X00409682Y00668127D01*
X00408127Y00669682D01*
X00406223Y00670781D01*
X00404099Y00671350D01*
X00401901D01*
X00399777Y00670781D01*
X00397873Y00669682D01*
X00396318Y00668127D01*
X00395283Y00666334D01*
X00387717D01*
X00386682Y00668127D01*
X00385127Y00669682D01*
X00383223Y00670781D01*
X00381099Y00671350D01*
X00378901D01*
X00376777Y00670781D01*
X00374873Y00669682D01*
X00373318Y00668127D01*
X00372219Y00666223D01*
X00371650Y00664099D01*
Y00662427D01*
X00370380Y00662041D01*
X00370244Y00662244D01*
X00327250Y00705238D01*
X00327736Y00706412D01*
X00420007D01*
X00420318Y00705873D01*
X00421873Y00704318D01*
X00423777Y00703219D01*
X00425901Y00702650D01*
X00428099D01*
X00430223Y00703219D01*
X00432127Y00704318D01*
X00433682Y00705873D01*
X00434781Y00707777D01*
X00435350Y00709901D01*
Y00712099D01*
X00434781Y00714223D01*
X00433682Y00716127D01*
X00432127Y00717682D01*
X00430223Y00718781D01*
X00428099Y00719350D01*
X00425901D01*
X00423777Y00718781D01*
X00421873Y00717682D01*
X00420318Y00716127D01*
X00420007Y00715588D01*
X00281993D01*
X00281682Y00716127D01*
X00280127Y00717682D01*
X00278223Y00718781D01*
X00276099Y00719350D01*
X00273901D01*
X00271777Y00718781D01*
X00269873Y00717682D01*
X00268318Y00716127D01*
X00267219Y00714223D01*
X00266650Y00712099D01*
Y00709901D01*
X00266811Y00709300D01*
X00251756Y00694244D01*
X00250761Y00692756D01*
X00250659Y00692242D01*
X00249320Y00692021D01*
X00248682Y00693127D01*
X00247127Y00694682D01*
X00245223Y00695781D01*
X00243099Y00696350D01*
X00240901D01*
X00238777Y00695781D01*
X00236873Y00694682D01*
X00235318Y00693127D01*
X00234219Y00691223D01*
X00233650Y00689099D01*
Y00686901D01*
X00234219Y00684777D01*
X00235318Y00682873D01*
X00236873Y00681318D01*
X00238777Y00680219D01*
X00238941Y00680175D01*
Y00645267D01*
X00221341Y00627667D01*
X00221223Y00627735D01*
X00219099Y00628304D01*
X00216901D01*
X00214777Y00627735D01*
X00212873Y00626636D01*
X00211318Y00625081D01*
X00210219Y00623177D01*
X00209650Y00621054D01*
Y00618855D01*
X00210219Y00616731D01*
X00211318Y00614827D01*
X00212873Y00613273D01*
X00214777Y00612174D01*
X00216901Y00611604D01*
X00219099D01*
X00221223Y00612174D01*
X00223127Y00613273D01*
X00224682Y00614827D01*
X00225781Y00616731D01*
X00226350Y00618855D01*
Y00621054D01*
X00225781Y00623177D01*
X00225679Y00623354D01*
X00244163Y00641837D01*
X00244826Y00642829D01*
X00245059Y00644000D01*
X00245059Y00644000D01*
Y00680175D01*
X00245223Y00680219D01*
X00247127Y00681318D01*
X00248682Y00682873D01*
X00249142Y00683670D01*
X00250412Y00683330D01*
Y00644993D01*
X00249873Y00644682D01*
X00248318Y00643127D01*
X00247219Y00641223D01*
X00246650Y00639099D01*
Y00636901D01*
X00247219Y00634777D01*
X00248318Y00632873D01*
X00249873Y00631318D01*
X00250412Y00631007D01*
Y00590000D01*
X00250761Y00588244D01*
X00251756Y00586756D01*
X00276412Y00562099D01*
Y00469000D01*
X00105059D01*
Y00591000D01*
X00105059Y00591000D01*
X00104826Y00592170D01*
X00104163Y00593163D01*
X00098696Y00598630D01*
X00098781Y00598777D01*
X00099350Y00600901D01*
Y00603099D01*
X00098781Y00605223D01*
X00097682Y00607127D01*
X00096127Y00608682D01*
X00094223Y00609781D01*
X00092099Y00610350D01*
X00089901D01*
X00087777Y00609781D01*
X00085873Y00608682D01*
X00084318Y00607127D01*
X00083219Y00605223D01*
X00082650Y00603099D01*
Y00600901D01*
X00083219Y00598777D01*
X00084318Y00596873D01*
X00085873Y00595318D01*
X00087777Y00594219D01*
X00089901Y00593650D01*
X00092099D01*
X00094223Y00594219D01*
X00094370Y00594304D01*
X00098941Y00589733D01*
Y00469000D01*
X00087059D01*
Y00514000D01*
X00087059Y00514000D01*
X00086826Y00515171D01*
X00086163Y00516163D01*
X00055163Y00547163D01*
X00054170Y00547826D01*
X00053000Y00548059D01*
X00053000Y00548059D01*
X00033860D01*
X00033713Y00548609D01*
X00032482Y00550741D01*
X00030741Y00552482D01*
X00028609Y00553713D01*
X00027500Y00554010D01*
Y00545000D01*
Y00535990D01*
X00028609Y00536287D01*
X00030741Y00537518D01*
X00032482Y00539259D01*
X00033713Y00541391D01*
X00033860Y00541941D01*
X00051733D01*
X00080941Y00512733D01*
Y00469000D01*
X00008069D01*
Y00720931D01*
X00178712D01*
X00179334Y00719778D01*
X00179301Y00719661D01*
X00177259Y00718482D01*
X00175518Y00716741D01*
X00174287Y00714609D01*
X00173990Y00713500D01*
X00192010D01*
X00191713Y00714609D01*
X00190482Y00716741D01*
X00188741Y00718482D01*
X00186699Y00719661D01*
X00186666Y00719778D01*
X00187288Y00720931D01*
X00591931D01*
Y00469000D01*
D02*
G37*
G36*
X00570000Y00305000D02*
Y00234000D01*
X00552000Y00218000D01*
X00506000D01*
X00492711Y00231289D01*
X00492741Y00231518D01*
X00494482Y00233259D01*
X00495713Y00235391D01*
X00496010Y00236500D01*
X00487000D01*
Y00239000D01*
X00484500D01*
Y00248010D01*
X00483391Y00247713D01*
X00482270Y00247066D01*
X00481000Y00247799D01*
Y00268000D01*
X00463000Y00286000D01*
Y00311000D01*
X00468000Y00316000D01*
X00559000D01*
X00570000Y00305000D01*
D02*
G37*
%LPC*%
G36*
X00192010Y00708500D02*
X00185500D01*
Y00701990D01*
X00186609Y00702287D01*
X00188741Y00703518D01*
X00190482Y00705259D01*
X00191713Y00707391D01*
X00192010Y00708500D01*
D02*
G37*
G36*
X00180500D02*
X00173990D01*
X00174287Y00707391D01*
X00175518Y00705259D01*
X00177259Y00703518D01*
X00179391Y00702287D01*
X00180500Y00701990D01*
Y00708500D01*
D02*
G37*
G36*
X00227099Y00687350D02*
X00224901D01*
X00222777Y00686781D01*
X00220873Y00685682D01*
X00219318Y00684127D01*
X00218219Y00682223D01*
X00217650Y00680099D01*
Y00677901D01*
X00218219Y00675777D01*
X00218304Y00675630D01*
X00211733Y00669059D01*
X00168825D01*
X00168781Y00669223D01*
X00167682Y00671127D01*
X00166127Y00672682D01*
X00164223Y00673781D01*
X00162099Y00674350D01*
X00159901D01*
X00157777Y00673781D01*
X00155873Y00672682D01*
X00154318Y00671127D01*
X00153219Y00669223D01*
X00152650Y00667099D01*
Y00664901D01*
X00153219Y00662777D01*
X00154318Y00660873D01*
X00155873Y00659318D01*
X00157777Y00658219D01*
X00159901Y00657650D01*
X00162099D01*
X00164223Y00658219D01*
X00166127Y00659318D01*
X00167682Y00660873D01*
X00168781Y00662777D01*
X00168825Y00662941D01*
X00213000D01*
X00213000Y00662941D01*
X00214170Y00663174D01*
X00215163Y00663837D01*
X00222630Y00671304D01*
X00222777Y00671219D01*
X00224901Y00670650D01*
X00227099D01*
X00229223Y00671219D01*
X00231127Y00672318D01*
X00232682Y00673873D01*
X00233781Y00675777D01*
X00234350Y00677901D01*
Y00680099D01*
X00233781Y00682223D01*
X00232682Y00684127D01*
X00231127Y00685682D01*
X00229223Y00686781D01*
X00227099Y00687350D01*
D02*
G37*
G36*
X00380099Y00689350D02*
X00377901D01*
X00375777Y00688781D01*
X00373873Y00687682D01*
X00372318Y00686127D01*
X00371219Y00684223D01*
X00370650Y00682099D01*
Y00679901D01*
X00371219Y00677777D01*
X00372318Y00675873D01*
X00373873Y00674318D01*
X00375777Y00673219D01*
X00377901Y00672650D01*
X00380099D01*
X00382223Y00673219D01*
X00384127Y00674318D01*
X00385682Y00675873D01*
X00386717Y00677666D01*
X00448650D01*
Y00675901D01*
X00449219Y00673777D01*
X00450318Y00671873D01*
X00451873Y00670318D01*
X00453777Y00669219D01*
X00455901Y00668650D01*
X00458099D01*
X00460223Y00669219D01*
X00462127Y00670318D01*
X00463682Y00671873D01*
X00464781Y00673777D01*
X00465350Y00675901D01*
Y00678099D01*
X00464781Y00680223D01*
X00463682Y00682127D01*
X00462127Y00683682D01*
X00460223Y00684781D01*
X00458099Y00685350D01*
X00455901D01*
X00453777Y00684781D01*
X00452007Y00683759D01*
X00451527Y00684080D01*
X00450251Y00684334D01*
X00386717D01*
X00385682Y00686127D01*
X00384127Y00687682D01*
X00382223Y00688781D01*
X00380099Y00689350D01*
D02*
G37*
G36*
X00067500Y00669010D02*
Y00662500D01*
X00074010D01*
X00073713Y00663609D01*
X00072482Y00665741D01*
X00070741Y00667482D01*
X00068609Y00668713D01*
X00067500Y00669010D01*
D02*
G37*
G36*
X00062500D02*
X00061391Y00668713D01*
X00059259Y00667482D01*
X00057518Y00665741D01*
X00056287Y00663609D01*
X00055990Y00662500D01*
X00062500D01*
Y00669010D01*
D02*
G37*
G36*
X00074010Y00657500D02*
X00067500D01*
Y00650990D01*
X00068609Y00651287D01*
X00070741Y00652518D01*
X00072482Y00654259D01*
X00073713Y00656391D01*
X00074010Y00657500D01*
D02*
G37*
G36*
X00062500D02*
X00055990D01*
X00056287Y00656391D01*
X00057518Y00654259D01*
X00059259Y00652518D01*
X00061391Y00651287D01*
X00062500Y00650990D01*
Y00657500D01*
D02*
G37*
G36*
X00348500Y00647010D02*
Y00640500D01*
X00355010D01*
X00354713Y00641609D01*
X00353482Y00643741D01*
X00351741Y00645482D01*
X00349609Y00646713D01*
X00348500Y00647010D01*
D02*
G37*
G36*
X00169500Y00646010D02*
Y00639500D01*
X00176010D01*
X00175713Y00640609D01*
X00174482Y00642741D01*
X00172741Y00644482D01*
X00170609Y00645713D01*
X00169500Y00646010D01*
D02*
G37*
G36*
X00164500D02*
X00163391Y00645713D01*
X00161259Y00644482D01*
X00159518Y00642741D01*
X00158287Y00640609D01*
X00157990Y00639500D01*
X00164500D01*
Y00646010D01*
D02*
G37*
G36*
X00176010Y00634500D02*
X00169500D01*
Y00627990D01*
X00170609Y00628287D01*
X00172741Y00629518D01*
X00174482Y00631259D01*
X00175713Y00633391D01*
X00176010Y00634500D01*
D02*
G37*
G36*
X00164500D02*
X00157990D01*
X00158287Y00633391D01*
X00159518Y00631259D01*
X00161259Y00629518D01*
X00163391Y00628287D01*
X00164500Y00627990D01*
Y00634500D01*
D02*
G37*
G36*
X00428500Y00611010D02*
Y00604500D01*
X00435010D01*
X00434713Y00605609D01*
X00433482Y00607741D01*
X00431741Y00609482D01*
X00429609Y00610713D01*
X00428500Y00611010D01*
D02*
G37*
G36*
X00423500D02*
X00422391Y00610713D01*
X00420259Y00609482D01*
X00418518Y00607741D01*
X00417287Y00605609D01*
X00416990Y00604500D01*
X00423500D01*
Y00611010D01*
D02*
G37*
G36*
X00057500Y00605010D02*
Y00598500D01*
X00064010D01*
X00063713Y00599609D01*
X00062482Y00601741D01*
X00060741Y00603482D01*
X00058609Y00604713D01*
X00057500Y00605010D01*
D02*
G37*
G36*
X00052500D02*
X00051391Y00604713D01*
X00049259Y00603482D01*
X00047518Y00601741D01*
X00046287Y00599609D01*
X00045990Y00598500D01*
X00052500D01*
Y00605010D01*
D02*
G37*
G36*
X00435010Y00599500D02*
X00428500D01*
Y00592990D01*
X00429609Y00593287D01*
X00431741Y00594518D01*
X00433482Y00596259D01*
X00434713Y00598391D01*
X00435010Y00599500D01*
D02*
G37*
G36*
X00423500D02*
X00416990D01*
X00417287Y00598391D01*
X00418518Y00596259D01*
X00420259Y00594518D01*
X00422391Y00593287D01*
X00423500Y00592990D01*
Y00599500D01*
D02*
G37*
G36*
X00064010Y00593500D02*
X00057500D01*
Y00586990D01*
X00058609Y00587287D01*
X00060741Y00588518D01*
X00062482Y00590259D01*
X00063713Y00592391D01*
X00064010Y00593500D01*
D02*
G37*
G36*
X00052500D02*
X00045990D01*
X00046287Y00592391D01*
X00047518Y00590259D01*
X00049259Y00588518D01*
X00051391Y00587287D01*
X00052500Y00586990D01*
Y00593500D01*
D02*
G37*
G36*
X00217500Y00573010D02*
Y00566500D01*
X00224010D01*
X00223713Y00567609D01*
X00222482Y00569741D01*
X00220741Y00571482D01*
X00218609Y00572713D01*
X00217500Y00573010D01*
D02*
G37*
G36*
X00212500D02*
X00211391Y00572713D01*
X00209259Y00571482D01*
X00207518Y00569741D01*
X00206287Y00567609D01*
X00205990Y00566500D01*
X00212500D01*
Y00573010D01*
D02*
G37*
G36*
X00224010Y00561500D02*
X00217500D01*
Y00554990D01*
X00218609Y00555287D01*
X00220741Y00556518D01*
X00222482Y00558259D01*
X00223713Y00560391D01*
X00224010Y00561500D01*
D02*
G37*
G36*
X00212500D02*
X00205990D01*
X00206287Y00560391D01*
X00207518Y00558259D01*
X00209259Y00556518D01*
X00211391Y00555287D01*
X00212500Y00554990D01*
Y00561500D01*
D02*
G37*
G36*
X00022500Y00554010D02*
X00021391Y00553713D01*
X00019259Y00552482D01*
X00017518Y00550741D01*
X00016287Y00548609D01*
X00015990Y00547500D01*
X00022500D01*
Y00554010D01*
D02*
G37*
G36*
Y00542500D02*
X00015990D01*
X00016287Y00541391D01*
X00017518Y00539259D01*
X00019259Y00537518D01*
X00021391Y00536287D01*
X00022500Y00535990D01*
Y00542500D01*
D02*
G37*
G36*
X00213500Y00490010D02*
Y00483500D01*
X00220010D01*
X00219713Y00484609D01*
X00218482Y00486741D01*
X00216741Y00488482D01*
X00214609Y00489713D01*
X00213500Y00490010D01*
D02*
G37*
G36*
X00208500D02*
X00207391Y00489713D01*
X00205259Y00488482D01*
X00203518Y00486741D01*
X00202287Y00484609D01*
X00201990Y00483500D01*
X00208500D01*
Y00490010D01*
D02*
G37*
G36*
X00022500Y00489010D02*
Y00482500D01*
X00029010D01*
X00028713Y00483609D01*
X00027482Y00485741D01*
X00025741Y00487482D01*
X00023609Y00488713D01*
X00022500Y00489010D01*
D02*
G37*
G36*
X00017500D02*
X00016391Y00488713D01*
X00014259Y00487482D01*
X00012518Y00485741D01*
X00011287Y00483609D01*
X00010990Y00482500D01*
X00017500D01*
Y00489010D01*
D02*
G37*
G36*
X00220010Y00478500D02*
X00213500D01*
Y00471990D01*
X00214609Y00472287D01*
X00216741Y00473518D01*
X00218482Y00475259D01*
X00219713Y00477391D01*
X00220010Y00478500D01*
D02*
G37*
G36*
X00208500D02*
X00201990D01*
X00202287Y00477391D01*
X00203518Y00475259D01*
X00205259Y00473518D01*
X00207391Y00472287D01*
X00208500Y00471990D01*
Y00478500D01*
D02*
G37*
G36*
X00029010Y00477500D02*
X00022500D01*
Y00470990D01*
X00023609Y00471287D01*
X00025741Y00472518D01*
X00027482Y00474259D01*
X00028713Y00476391D01*
X00029010Y00477500D01*
D02*
G37*
G36*
X00017500D02*
X00010990D01*
X00011287Y00476391D01*
X00012518Y00474259D01*
X00014259Y00472518D01*
X00016391Y00471287D01*
X00017500Y00470990D01*
Y00477500D01*
D02*
G37*
G36*
X00489500Y00248010D02*
Y00241500D01*
X00496010D01*
X00495713Y00242609D01*
X00494482Y00244741D01*
X00492741Y00246482D01*
X00490609Y00247713D01*
X00489500Y00248010D01*
D02*
G37*
%LPD*%
D10*
X00499000Y00179000D02*
Y00194000D01*
X00399000Y00294000D02*
X00499000Y00194000D01*
X00187000Y00374223D02*
X00215000Y00346223D01*
X00187000Y00374223D02*
Y00377000D01*
X00155000Y00360000D02*
X00188000D01*
X00200000Y00389000D02*
X00228000Y00361000D01*
X00155000Y00389000D02*
X00200000D01*
X00215000Y00307000D02*
Y00346223D01*
X00084000Y00278825D02*
Y00514000D01*
Y00278825D02*
X00100824Y00262000D01*
X00101000D01*
X00258650Y00266350D02*
X00260000Y00265000D01*
X00237000Y00311000D02*
Y00382000D01*
Y00311000D02*
X00263000Y00285000D01*
X00250650Y00266350D02*
X00258650D01*
X00228000Y00289000D02*
X00250650Y00266350D01*
X00228000Y00289000D02*
Y00361000D01*
X00241000Y00138000D02*
Y00177000D01*
X00395000Y00315000D02*
X00507000Y00203000D01*
X00360000Y00315000D02*
X00395000D01*
X00232000Y00186000D02*
X00241000Y00177000D01*
X00383000Y00364000D02*
X00416000D01*
X00365000Y00294000D02*
X00399000D01*
X00432485Y00203515D02*
Y00215515D01*
X00364000Y00284000D02*
X00432485Y00215515D01*
X00348000Y00284000D02*
X00364000D01*
X00432485Y00203515D02*
X00434000Y00202000D01*
X00218000Y00620000D02*
X00242000Y00644000D01*
X00218000Y00619954D02*
Y00620000D01*
X00053000Y00545000D02*
X00084000Y00514000D01*
X00025000Y00545000D02*
X00053000D01*
X00102000Y00413000D02*
Y00591000D01*
X00091000Y00602000D02*
X00102000Y00591000D01*
Y00413000D02*
X00155000Y00360000D01*
X00242000Y00644000D02*
Y00688000D01*
X00161000Y00666000D02*
X00213000D01*
X00226000Y00679000D01*
X00197000Y00422000D02*
X00237000Y00382000D01*
D13*
X00380000Y00663000D02*
X00403000D01*
X00450251Y00681000D02*
X00454251Y00677000D01*
X00379000Y00681000D02*
X00450251D01*
X00454251Y00677000D02*
X00457000D01*
D60*
X00266000Y00091000D02*
Y00199000D01*
X00265000Y00090000D02*
X00266000Y00091000D01*
X00265000Y00090000D02*
X00275850Y00079150D01*
X00335000Y00104122D02*
Y00159000D01*
X00322000Y00092000D02*
X00323000Y00093000D01*
X00315000Y00711000D02*
X00367000Y00659000D01*
X00275000Y00711000D02*
X00315000D01*
X00255000Y00691000D02*
X00275000Y00711000D01*
X00255000Y00638000D02*
Y00691000D01*
Y00590000D02*
Y00638000D01*
Y00590000D02*
X00281000Y00564000D01*
Y00398000D02*
Y00564000D01*
X00335000Y00197916D02*
X00347916Y00185000D01*
X00459495D01*
X00335000Y00197916D02*
Y00200000D01*
X00131000Y00116000D02*
X00147200Y00099800D01*
X00110000Y00162000D02*
X00111373D01*
X00129627Y00143745D02*
X00131000D01*
X00111373Y00162000D02*
X00129627Y00143745D01*
X00131000Y00116000D02*
Y00142000D01*
X00367000Y00622122D02*
Y00659000D01*
X00350000Y00605122D02*
X00367000Y00622122D01*
X00130000Y00214587D02*
Y00226000D01*
X00128000Y00164000D02*
Y00203000D01*
X00107000Y00224000D02*
X00128000Y00203000D01*
X00130000Y00214587D02*
X00139000Y00205587D01*
Y00204000D02*
Y00205587D01*
X00350000Y00604000D02*
Y00605122D01*
X00459495Y00185000D02*
X00474000Y00199505D01*
Y00202000D01*
X00323878Y00093000D02*
X00335000Y00104122D01*
X00340000Y00090000D02*
X00349000Y00099000D01*
X00323000Y00093000D02*
X00323878D01*
X00141939Y00150061D02*
X00146855D01*
X00154916Y00142000D01*
X00128000Y00164000D02*
X00141939Y00150061D01*
X00154916Y00142000D02*
X00157000D01*
X00306000Y00089929D02*
Y00116000D01*
X00295221Y00079150D02*
X00306000Y00089929D01*
Y00116000D02*
X00323000Y00133000D01*
X00275850Y00079150D02*
X00295221D01*
X00150000Y00172084D02*
Y00221000D01*
X00144000Y00166084D02*
X00150000Y00172084D01*
X00144000Y00164000D02*
Y00166084D01*
X00315000Y00711000D02*
X00427000D01*
D61*
X00349000Y00099000D02*
Y00165000D01*
X00309000Y00205000D02*
Y00601000D01*
Y00205000D02*
X00349000Y00165000D01*
X00163000Y00259000D02*
X00206000D01*
X00266000Y00199000D01*
X00130000Y00226000D02*
X00163000Y00259000D01*
X00309000Y00601000D02*
X00346000Y00638000D01*
D62*
X00281000Y00094272D02*
Y00398000D01*
Y00094272D02*
X00284000Y00091272D01*
Y00090000D02*
Y00091272D01*
X00333000Y00317000D02*
X00358000Y00342000D01*
X00333000Y00243000D02*
Y00317000D01*
Y00243000D02*
X00374000Y00202000D01*
X00358000Y00342000D02*
X00432000D01*
X00120000Y00430000D02*
X00177542D01*
X00185542Y00438000D02*
X00241000D01*
X00177542Y00430000D02*
X00185542Y00438000D01*
X00241000D02*
X00281000Y00398000D01*
D64*
X00336000Y00060400D02*
D03*
X00270000D02*
D03*
D65*
X00349100Y00066000D02*
D03*
X00256900D02*
D03*
X00349100Y00021000D02*
D03*
X00256900D02*
D03*
D66*
X00374000Y00202000D02*
D03*
D67*
X00394000D02*
D03*
X00414000D02*
D03*
X00434000D02*
D03*
X00454000D02*
D03*
X00474000D02*
D03*
D68*
X00499000Y00179000D02*
D03*
X00187000Y00377000D02*
D03*
X00188000Y00360000D02*
D03*
X00215000Y00307000D02*
D03*
X00101000Y00262000D02*
D03*
X00335000Y00159000D02*
D03*
X00260000Y00265000D02*
D03*
X00335000Y00200000D02*
D03*
X00263000Y00285000D02*
D03*
X00147200Y00099800D02*
D03*
X00241000Y00138000D02*
D03*
X00131000Y00143745D02*
D03*
X00507000Y00203000D02*
D03*
X00487000Y00239000D02*
D03*
X00110000Y00162000D02*
D03*
X00350000Y00604000D02*
D03*
X00383000Y00364000D02*
D03*
X00416000D02*
D03*
X00360000Y00315000D02*
D03*
X00432000Y00342000D02*
D03*
X00266000Y00199000D02*
D03*
X00365000Y00294000D02*
D03*
X00348000Y00284000D02*
D03*
X00232000Y00186000D02*
D03*
X00323000Y00093000D02*
D03*
X00218000Y00619954D02*
D03*
X00065000Y00660000D02*
D03*
X00025000Y00545000D02*
D03*
X00157000Y00142000D02*
D03*
X00139000Y00204000D02*
D03*
X00167000Y00637000D02*
D03*
X00091000Y00602000D02*
D03*
X00055000Y00596000D02*
D03*
X00215000Y00564000D02*
D03*
X00403000Y00663000D02*
D03*
X00379000Y00681000D02*
D03*
X00380000Y00663000D02*
D03*
X00275000Y00711000D02*
D03*
X00120000Y00430000D02*
D03*
X00457000Y00677000D02*
D03*
X00426000Y00602000D02*
D03*
X00427000Y00711000D02*
D03*
X00211000Y00481000D02*
D03*
X00020000Y00480000D02*
D03*
X00242000Y00688000D02*
D03*
X00226000Y00679000D02*
D03*
X00161000Y00666000D02*
D03*
X00183000Y00711000D02*
D03*
X00340000Y00090000D02*
D03*
X00284000D02*
D03*
X00155000Y00389000D02*
D03*
X00197000Y00422000D02*
D03*
X00255000Y00638000D02*
D03*
X00346000D02*
D03*
X00107000Y00224000D02*
D03*
X00144000Y00164000D02*
D03*
X00150000Y00221000D02*
D03*
X00323000Y00133000D02*
D03*
X00265000Y00090000D02*
D03*
M02*
