G04*
G04 #@! TF.GenerationSoftware,Altium Limited,Altium Designer,21.8.1 (53)*
G04*
G04 Layer_Color=32768*
%FSAX44Y44*%
%MOMM*%
G71*
G04*
G04 #@! TF.SameCoordinates,32BA2F72-2B31-4227-8ABE-CAB74C13F427*
G04*
G04*
G04 #@! TF.FilePolarity,Positive*
G04*
G01*
G75*
%ADD12C,0.1524*%
%ADD70C,0.1000*%
%ADD72C,0.0500*%
G36*
X00445892Y00328564D02*
X00460060D01*
Y00261436D01*
X00445892D01*
Y00259440D01*
X00396108D01*
Y00261436D01*
X00381940D01*
Y00328564D01*
X00396108D01*
Y00330560D01*
X00445892D01*
Y00328564D01*
D02*
G37*
D12*
X00460060Y00261436D02*
Y00328564D01*
X00445892Y00261436D02*
X00460060D01*
X00445892Y00259440D02*
Y00261436D01*
X00396108Y00259440D02*
X00445892D01*
X00396108D02*
Y00261436D01*
X00381940D02*
X00396108D01*
X00381940D02*
Y00328564D01*
X00396108D01*
Y00330560D01*
X00445892D01*
Y00328564D02*
Y00330560D01*
Y00328564D02*
X00460060D01*
D70*
X00209250Y00679000D02*
X00214750D01*
X00212000Y00676250D02*
Y00681750D01*
X00206500Y00666750D02*
Y00691250D01*
X00217500Y00666750D02*
Y00691250D01*
X00206500Y00666750D02*
X00217500D01*
X00206500Y00691250D02*
X00217500D01*
X00530500Y00142000D02*
X00535500D01*
X00533000Y00139500D02*
Y00144500D01*
X00531000Y00165250D02*
Y00170750D01*
X00528250Y00168000D02*
X00533750D01*
X00518750Y00162500D02*
X00543250D01*
X00518750Y00173500D02*
X00543250D01*
Y00162500D02*
Y00173500D01*
X00518750Y00162500D02*
Y00173500D01*
X00530750Y00197250D02*
Y00202750D01*
X00528000Y00200000D02*
X00533500D01*
X00518500Y00205500D02*
X00543000D01*
X00518500Y00194500D02*
X00543000D01*
X00518500D02*
Y00205500D01*
X00543000Y00194500D02*
Y00205500D01*
X00530750Y00181250D02*
Y00186750D01*
X00528000Y00184000D02*
X00533500D01*
X00518500Y00189500D02*
X00543000D01*
X00518500Y00178500D02*
X00543000D01*
X00518500D02*
Y00189500D01*
X00543000Y00178500D02*
Y00189500D01*
X00303000Y00132250D02*
Y00137750D01*
X00300250Y00135000D02*
X00305750D01*
X00290750Y00129500D02*
X00315250D01*
X00290750Y00140500D02*
X00315250D01*
Y00129500D02*
Y00140500D01*
X00290750Y00129500D02*
Y00140500D01*
X00305250Y00113000D02*
X00310750D01*
X00308000Y00110250D02*
Y00115750D01*
X00313500Y00100750D02*
Y00125250D01*
X00302500Y00100750D02*
Y00125250D01*
X00313500D01*
X00302500Y00100750D02*
X00313500D01*
X00474250Y00298000D02*
X00483750D01*
X00479000Y00293250D02*
Y00302750D01*
X00328000Y00251000D02*
X00337500D01*
X00332750Y00246250D02*
Y00255750D01*
X00328000Y00233000D02*
X00337500D01*
X00332750Y00228250D02*
Y00237750D01*
X00284000Y00114400D02*
Y00119600D01*
X00281400Y00117000D02*
X00286600D01*
X00387000Y00229000D02*
X00392200D01*
X00389600Y00226400D02*
Y00231600D01*
X00322000Y00110400D02*
Y00115600D01*
X00319400Y00113000D02*
X00324600D01*
X00502400Y00302600D02*
X00507600D01*
X00505000Y00300000D02*
Y00305200D01*
X00500400Y00244000D02*
X00505600D01*
X00503000Y00241400D02*
Y00246600D01*
X00530000Y00268000D02*
X00540000D01*
X00535000Y00263000D02*
Y00273000D01*
X00351500Y00548500D02*
X00362500D01*
X00351500Y00573000D02*
X00362500D01*
X00351500Y00548500D02*
Y00573000D01*
X00362500Y00548500D02*
Y00573000D01*
X00357000Y00558000D02*
Y00563500D01*
X00354250Y00560750D02*
X00359750D01*
X00096000Y00675500D02*
Y00686500D01*
X00120500Y00675500D02*
Y00686500D01*
X00096000D02*
X00120500D01*
X00096000Y00675500D02*
X00120500D01*
X00105500Y00681000D02*
X00111000D01*
X00108250Y00678250D02*
Y00683750D01*
X00109750Y00566500D02*
Y00577500D01*
X00134250Y00566500D02*
Y00577500D01*
X00109750D02*
X00134250D01*
X00109750Y00566500D02*
X00134250D01*
X00119250Y00572000D02*
X00124750D01*
X00122000Y00569250D02*
Y00574750D01*
X00080750Y00566500D02*
Y00577500D01*
X00105250Y00566500D02*
Y00577500D01*
X00080750D02*
X00105250D01*
X00080750Y00566500D02*
X00105250D01*
X00090250Y00572000D02*
X00095750D01*
X00093000Y00569250D02*
Y00574750D01*
X00109000Y00581500D02*
Y00592500D01*
X00133500Y00581500D02*
Y00592500D01*
X00109000D02*
X00133500D01*
X00109000Y00581500D02*
X00133500D01*
X00118500Y00587000D02*
X00124000D01*
X00121250Y00584250D02*
Y00589750D01*
X00265500Y00502750D02*
X00276500D01*
X00265500Y00527250D02*
X00276500D01*
X00265500Y00502750D02*
Y00527250D01*
X00276500Y00502750D02*
Y00527250D01*
X00271000Y00512250D02*
Y00517750D01*
X00268250Y00515000D02*
X00273750D01*
X00280500Y00538750D02*
X00291500D01*
X00280500Y00563250D02*
X00291500D01*
X00280500Y00538750D02*
Y00563250D01*
X00291500Y00538750D02*
Y00563250D01*
X00286000Y00548250D02*
Y00553750D01*
X00283250Y00551000D02*
X00288750D01*
X00280500Y00510000D02*
X00291500D01*
X00280500Y00534500D02*
X00291500D01*
X00280500Y00510000D02*
Y00534500D01*
X00291500Y00510000D02*
Y00534500D01*
X00286000Y00519500D02*
Y00525000D01*
X00283250Y00522250D02*
X00288750D01*
X00280500Y00481000D02*
X00291500D01*
X00280500Y00505500D02*
X00291500D01*
X00280500Y00481000D02*
Y00505500D01*
X00291500Y00481000D02*
Y00505500D01*
X00286000Y00490500D02*
Y00496000D01*
X00283250Y00493250D02*
X00288750D01*
X00280500Y00452000D02*
X00291500D01*
X00280500Y00476500D02*
X00291500D01*
X00280500Y00452000D02*
Y00476500D01*
X00291500Y00452000D02*
Y00476500D01*
X00286000Y00461500D02*
Y00467000D01*
X00283250Y00464250D02*
X00288750D01*
X00457750Y00613500D02*
Y00624500D01*
X00482250Y00613500D02*
Y00624500D01*
X00457750D02*
X00482250D01*
X00457750Y00613500D02*
X00482250D01*
X00467250Y00619000D02*
X00472750D01*
X00470000Y00616250D02*
Y00621750D01*
X00457750Y00585500D02*
Y00596500D01*
X00482250Y00585500D02*
Y00596500D01*
X00457750D02*
X00482250D01*
X00457750Y00585500D02*
X00482250D01*
X00467250Y00591000D02*
X00472750D01*
X00470000Y00588250D02*
Y00593750D01*
X00178750Y00547500D02*
Y00558500D01*
X00203250Y00547500D02*
Y00558500D01*
X00178750D02*
X00203250D01*
X00178750Y00547500D02*
X00203250D01*
X00188250Y00553000D02*
X00193750D01*
X00191000Y00550250D02*
Y00555750D01*
X00424250Y00562500D02*
Y00573500D01*
X00399750Y00562500D02*
Y00573500D01*
Y00562500D02*
X00424250D01*
X00399750Y00573500D02*
X00424250D01*
X00409250Y00568000D02*
X00414750D01*
X00412000Y00565250D02*
Y00570750D01*
X00348750Y00511000D02*
X00358250D01*
X00353500Y00506250D02*
Y00515750D01*
X00364500Y00524500D02*
Y00535500D01*
X00340000Y00524500D02*
Y00535500D01*
Y00524500D02*
X00364500D01*
X00340000Y00535500D02*
X00364500D01*
X00349500Y00530000D02*
X00355000D01*
X00352250Y00527250D02*
Y00532750D01*
X00240250Y00711000D02*
X00249750D01*
X00245000Y00706250D02*
Y00715750D01*
X00205750Y00711000D02*
X00215250D01*
X00210500Y00706250D02*
Y00715750D01*
X00122750Y00660500D02*
Y00671500D01*
X00147250Y00660500D02*
Y00671500D01*
X00122750D02*
X00147250D01*
X00122750Y00660500D02*
X00147250D01*
X00132250Y00666000D02*
X00137750D01*
X00135000Y00663250D02*
Y00668750D01*
X00249500Y00658750D02*
X00260500D01*
X00249500Y00683250D02*
X00260500D01*
X00249500Y00658750D02*
Y00683250D01*
X00260500Y00658750D02*
Y00683250D01*
X00255000Y00668250D02*
Y00673750D01*
X00252250Y00671000D02*
X00257750D01*
X00093750Y00660500D02*
Y00671500D01*
X00118250Y00660500D02*
Y00671500D01*
X00093750D02*
X00118250D01*
X00093750Y00660500D02*
X00118250D01*
X00103250Y00666000D02*
X00108750D01*
X00106000Y00663250D02*
Y00668750D01*
X00055500Y00675750D02*
X00066500D01*
X00055500Y00700250D02*
X00066500D01*
X00055500Y00675750D02*
Y00700250D01*
X00066500Y00675750D02*
Y00700250D01*
X00061000Y00685250D02*
Y00690750D01*
X00058250Y00688000D02*
X00063750D01*
X00040500Y00675750D02*
X00051500D01*
X00040500Y00700250D02*
X00051500D01*
X00040500Y00675750D02*
Y00700250D01*
X00051500Y00675750D02*
Y00700250D01*
X00046000Y00685250D02*
Y00690750D01*
X00043250Y00688000D02*
X00048750D01*
X00017750Y00590500D02*
Y00601500D01*
X00042250Y00590500D02*
Y00601500D01*
X00017750D02*
X00042250D01*
X00017750Y00590500D02*
X00042250D01*
X00027250Y00596000D02*
X00032750D01*
X00030000Y00593250D02*
Y00598750D01*
X00019500Y00579250D02*
X00030500D01*
X00019500Y00554750D02*
X00030500D01*
Y00579250D01*
X00019500Y00554750D02*
Y00579250D01*
X00025000Y00564250D02*
Y00569750D01*
X00022250Y00567000D02*
X00027750D01*
X00481500Y00557500D02*
Y00568500D01*
X00457000Y00557500D02*
Y00568500D01*
Y00557500D02*
X00481500D01*
X00457000Y00568500D02*
X00481500D01*
X00466500Y00563000D02*
X00472000D01*
X00469250Y00560250D02*
Y00565750D01*
X00457750Y00599500D02*
Y00610500D01*
X00482250Y00599500D02*
Y00610500D01*
X00457750D02*
X00482250D01*
X00457750Y00599500D02*
X00482250D01*
X00467250Y00605000D02*
X00472750D01*
X00470000Y00602250D02*
Y00607750D01*
X00469500Y00683250D02*
X00480500D01*
X00469500Y00658750D02*
X00480500D01*
Y00683250D01*
X00469500Y00658750D02*
Y00683250D01*
X00475000Y00668250D02*
Y00673750D01*
X00472250Y00671000D02*
X00477750D01*
X00362250Y00657500D02*
Y00668500D01*
X00337750Y00657500D02*
Y00668500D01*
Y00657500D02*
X00362250D01*
X00337750Y00668500D02*
X00362250D01*
X00347250Y00663000D02*
X00352750D01*
X00350000Y00660250D02*
Y00665750D01*
X00427000Y00677250D02*
Y00686750D01*
X00422250Y00682000D02*
X00431750D01*
X00426500Y00642750D02*
Y00652250D01*
X00421750Y00647500D02*
X00431250D01*
X00379250Y00632500D02*
Y00643500D01*
X00354750Y00632500D02*
Y00643500D01*
Y00632500D02*
X00379250D01*
X00354750Y00643500D02*
X00379250D01*
X00364250Y00638000D02*
X00369750D01*
X00367000Y00635250D02*
Y00640750D01*
X00407000Y00632500D02*
Y00643500D01*
X00382500Y00632500D02*
Y00643500D01*
Y00632500D02*
X00407000D01*
X00382500Y00643500D02*
X00407000D01*
X00392000Y00638000D02*
X00397500D01*
X00394750Y00635250D02*
Y00640750D01*
X00414250Y00707500D02*
Y00718500D01*
X00389750Y00707500D02*
Y00718500D01*
Y00707500D02*
X00414250D01*
X00389750Y00718500D02*
X00414250D01*
X00399250Y00713000D02*
X00404750D01*
X00402000Y00710250D02*
Y00715750D01*
X00213250Y00637000D02*
X00222750D01*
X00218000Y00632250D02*
Y00641750D01*
X00181250Y00637000D02*
X00190750D01*
X00186000Y00632250D02*
Y00641750D01*
X00280500Y00423000D02*
X00291500D01*
X00280500Y00447500D02*
X00291500D01*
X00280500Y00423000D02*
Y00447500D01*
X00291500Y00423000D02*
Y00447500D01*
X00286000Y00432500D02*
Y00438000D01*
X00283250Y00435250D02*
X00288750D01*
X00249500Y00545750D02*
X00260500D01*
X00249500Y00570250D02*
X00260500D01*
X00249500Y00545750D02*
Y00570250D01*
X00260500Y00545750D02*
Y00570250D01*
X00255000Y00555250D02*
Y00560750D01*
X00252250Y00558000D02*
X00257750D01*
X00178250Y00513500D02*
Y00524500D01*
X00153750Y00513500D02*
Y00524500D01*
Y00513500D02*
X00178250D01*
X00153750Y00524500D02*
X00178250D01*
X00163250Y00519000D02*
X00168750D01*
X00166000Y00516250D02*
Y00521750D01*
X00178750Y00576500D02*
Y00587500D01*
X00203250Y00576500D02*
Y00587500D01*
X00178750D02*
X00203250D01*
X00178750Y00576500D02*
X00203250D01*
X00188250Y00582000D02*
X00193750D01*
X00191000Y00579250D02*
Y00584750D01*
X00231500Y00576500D02*
Y00587500D01*
X00207000Y00576500D02*
Y00587500D01*
Y00576500D02*
X00231500D01*
X00207000Y00587500D02*
X00231500D01*
X00216500Y00582000D02*
X00222000D01*
X00219250Y00579250D02*
Y00584750D01*
X00197000Y00600000D02*
X00207000D01*
X00202000Y00595000D02*
Y00605000D01*
X00082000Y00677400D02*
Y00682600D01*
X00079400Y00680000D02*
X00084600D01*
X00068400Y00592000D02*
X00073600D01*
X00071000Y00589400D02*
Y00594600D01*
X00082000Y00693400D02*
Y00698600D01*
X00079400Y00696000D02*
X00084600D01*
X00066000Y00569400D02*
Y00574600D01*
X00063400Y00572000D02*
X00068600D01*
X00470000Y00574400D02*
Y00579600D01*
X00467400Y00577000D02*
X00472600D01*
X00440400Y00643000D02*
X00445600D01*
X00443000Y00640400D02*
Y00645600D01*
X00325000Y00699400D02*
Y00704600D01*
X00322400Y00702000D02*
X00327600D01*
X00191000Y00618400D02*
Y00623600D01*
X00188400Y00621000D02*
X00193600D01*
X00281000Y00569400D02*
Y00574600D01*
X00278400Y00572000D02*
X00283600D01*
X00193400Y00524000D02*
X00198600D01*
X00196000Y00521400D02*
Y00526600D01*
X00207400Y00524000D02*
X00212600D01*
X00210000Y00521400D02*
Y00526600D01*
X00165400Y00595000D02*
X00170600D01*
X00168000Y00592400D02*
Y00597600D01*
X00191000Y00565400D02*
Y00570600D01*
X00188400Y00568000D02*
X00193600D01*
X00151250Y00435500D02*
Y00446500D01*
X00126750Y00435500D02*
Y00446500D01*
Y00435500D02*
X00151250D01*
X00126750Y00446500D02*
X00151250D01*
X00136250Y00441000D02*
X00141750D01*
X00139000Y00438250D02*
Y00443750D01*
X00199250Y00439000D02*
X00208750D01*
X00204000Y00434250D02*
Y00443750D01*
X00154500Y00423750D02*
X00165500D01*
X00154500Y00448250D02*
X00165500D01*
X00154500Y00423750D02*
Y00448250D01*
X00165500Y00423750D02*
Y00448250D01*
X00160000Y00433250D02*
Y00438750D01*
X00157250Y00436000D02*
X00162750D01*
X00025750Y00442000D02*
X00035250D01*
X00030500Y00437250D02*
Y00446750D01*
X00112250Y00436500D02*
Y00447500D01*
X00087750Y00436500D02*
Y00447500D01*
Y00436500D02*
X00112250D01*
X00087750Y00447500D02*
X00112250D01*
X00097250Y00442000D02*
X00102750D01*
X00100000Y00439250D02*
Y00444750D01*
X00047500Y00449250D02*
X00058500D01*
X00047500Y00424750D02*
X00058500D01*
Y00449250D01*
X00047500Y00424750D02*
Y00449250D01*
X00053000Y00434250D02*
Y00439750D01*
X00050250Y00437000D02*
X00055750D01*
X00185000Y00227000D02*
Y00237000D01*
X00180000Y00232000D02*
X00190000D01*
X00179000Y00152000D02*
X00189000D01*
X00184000Y00147000D02*
Y00157000D01*
X00083000Y00230000D02*
Y00240000D01*
X00078000Y00235000D02*
X00088000D01*
X00079000Y00153000D02*
X00089000D01*
X00084000Y00148000D02*
Y00158000D01*
X00192000Y00461000D02*
X00202000D01*
X00197000Y00456000D02*
Y00466000D01*
X00139000Y00461000D02*
X00149000D01*
X00144000Y00456000D02*
Y00466000D01*
X00032000Y00461000D02*
X00042000D01*
X00037000Y00456000D02*
Y00466000D01*
X00085000Y00461000D02*
X00095000D01*
X00090000Y00456000D02*
Y00466000D01*
X00173000Y00204000D02*
X00183000D01*
X00178000Y00199000D02*
Y00209000D01*
X00173000Y00180000D02*
X00183000D01*
X00178000Y00175000D02*
Y00185000D01*
X00087000Y00204000D02*
X00097000D01*
X00092000Y00199000D02*
Y00209000D01*
X00087000Y00180000D02*
X00097000D01*
X00092000Y00175000D02*
Y00185000D01*
X00157400Y00409000D02*
X00162600D01*
X00160000Y00406400D02*
Y00411600D01*
X00050400Y00410600D02*
X00055600D01*
X00053000Y00408000D02*
Y00413200D01*
X00194000Y00311250D02*
Y00320750D01*
X00189250Y00316000D02*
X00198750D01*
X00177000Y00311250D02*
Y00320750D01*
X00172250Y00316000D02*
X00181750D01*
X00160000Y00311250D02*
Y00320750D01*
X00155250Y00316000D02*
X00164750D01*
X00143000Y00311250D02*
Y00320750D01*
X00138250Y00316000D02*
X00147750D01*
X00126000Y00311250D02*
Y00320750D01*
X00121250Y00316000D02*
X00130750D01*
D72*
X00249400Y00080500D02*
X00356600D01*
Y-00010500D02*
Y00080500D01*
X00249400Y-00010500D02*
X00356600D01*
X00249400D02*
Y00080500D01*
X00525000Y00134000D02*
Y00150000D01*
X00541000D01*
Y00134000D02*
Y00150000D01*
X00525000Y00134000D02*
X00541000D01*
X00492500Y00290500D02*
Y00305500D01*
X00465500Y00290500D02*
Y00305500D01*
Y00290500D02*
X00492500D01*
X00465500Y00305500D02*
X00492500D01*
X00319250Y00243500D02*
Y00258500D01*
X00346250Y00243500D02*
Y00258500D01*
X00319250D02*
X00346250D01*
X00319250Y00243500D02*
X00346250D01*
Y00225500D02*
Y00240500D01*
X00319250Y00225500D02*
Y00240500D01*
Y00225500D02*
X00346250D01*
X00319250Y00240500D02*
X00346250D01*
X00279000Y00107500D02*
X00289000D01*
X00279000Y00126500D02*
X00289000D01*
X00279000Y00107500D02*
Y00126500D01*
X00289000Y00107500D02*
Y00126500D01*
X00380100Y00224000D02*
Y00234000D01*
X00399100Y00224000D02*
Y00234000D01*
X00380100D02*
X00399100D01*
X00380100Y00224000D02*
X00399100D01*
X00317000Y00103500D02*
X00327000D01*
X00317000Y00122500D02*
X00327000D01*
X00317000Y00103500D02*
Y00122500D01*
X00327000Y00103500D02*
Y00122500D01*
X00510000Y00293100D02*
Y00312100D01*
X00500000Y00293100D02*
Y00312100D01*
X00510000D01*
X00500000Y00293100D02*
X00510000D01*
X00498000Y00234500D02*
Y00253500D01*
X00508000Y00234500D02*
Y00253500D01*
X00498000Y00234500D02*
X00508000D01*
X00498000Y00253500D02*
X00508000D01*
X00554500Y00234500D02*
Y00301500D01*
X00515500Y00234500D02*
Y00301500D01*
X00554500D01*
X00515500Y00234500D02*
X00554500D01*
X00340000Y00503500D02*
Y00518500D01*
X00367000Y00503500D02*
Y00518500D01*
X00340000D02*
X00367000D01*
X00340000Y00503500D02*
X00367000D01*
X00231500Y00703500D02*
Y00718500D01*
X00258500Y00703500D02*
Y00718500D01*
X00231500D02*
X00258500D01*
X00231500Y00703500D02*
X00258500D01*
X00224000Y00703500D02*
Y00718500D01*
X00197000Y00703500D02*
Y00718500D01*
Y00703500D02*
X00224000D01*
X00197000Y00718500D02*
X00224000D01*
X00419500Y00695500D02*
X00434500D01*
X00419500Y00668500D02*
X00434500D01*
Y00695500D01*
X00419500Y00668500D02*
Y00695500D01*
X00419000Y00661000D02*
X00434000D01*
X00419000Y00634000D02*
X00434000D01*
Y00661000D01*
X00419000Y00634000D02*
Y00661000D01*
X00204500Y00629500D02*
Y00644500D01*
X00231500Y00629500D02*
Y00644500D01*
X00204500D02*
X00231500D01*
X00204500Y00629500D02*
X00231500D01*
X00172500D02*
Y00644500D01*
X00199500Y00629500D02*
Y00644500D01*
X00172500D02*
X00199500D01*
X00172500Y00629500D02*
X00199500D01*
X00225000Y00590000D02*
Y00610000D01*
X00179000Y00590000D02*
Y00610000D01*
Y00591000D02*
X00225000D01*
X00179000Y00610000D02*
X00225000D01*
X00072500Y00685000D02*
X00091500D01*
X00072500Y00675000D02*
X00091500D01*
X00072500D02*
Y00685000D01*
X00091500Y00675000D02*
Y00685000D01*
X00066000Y00582500D02*
Y00601500D01*
X00076000Y00582500D02*
Y00601500D01*
X00066000Y00582500D02*
X00076000D01*
X00066000Y00601500D02*
X00076000D01*
X00072500Y00691000D02*
X00091500D01*
X00072500Y00701000D02*
X00091500D01*
Y00691000D02*
Y00701000D01*
X00072500Y00691000D02*
Y00701000D01*
X00056500Y00567000D02*
X00075500D01*
X00056500Y00577000D02*
X00075500D01*
Y00567000D02*
Y00577000D01*
X00056500Y00567000D02*
Y00577000D01*
X00460500Y00582000D02*
X00479500D01*
X00460500Y00572000D02*
X00479500D01*
X00460500D02*
Y00582000D01*
X00479500Y00572000D02*
Y00582000D01*
X00438000Y00633500D02*
Y00652500D01*
X00448000Y00633500D02*
Y00652500D01*
X00438000Y00633500D02*
X00448000D01*
X00438000Y00652500D02*
X00448000D01*
X00315500Y00697000D02*
X00334500D01*
X00315500Y00707000D02*
X00334500D01*
Y00697000D02*
Y00707000D01*
X00315500Y00697000D02*
Y00707000D01*
X00181500Y00616000D02*
X00200500D01*
X00181500Y00626000D02*
X00200500D01*
Y00616000D02*
Y00626000D01*
X00181500Y00616000D02*
Y00626000D01*
X00271500Y00567000D02*
X00290500D01*
X00271500Y00577000D02*
X00290500D01*
Y00567000D02*
Y00577000D01*
X00271500Y00567000D02*
Y00577000D01*
X00201000Y00514500D02*
Y00533500D01*
X00191000Y00514500D02*
Y00533500D01*
X00201000D01*
X00191000Y00514500D02*
X00201000D01*
X00205000Y00514500D02*
Y00533500D01*
X00215000Y00514500D02*
Y00533500D01*
X00205000Y00514500D02*
X00215000D01*
X00205000Y00533500D02*
X00215000D01*
X00163000Y00585500D02*
Y00604500D01*
X00173000Y00585500D02*
Y00604500D01*
X00163000Y00585500D02*
X00173000D01*
X00163000Y00604500D02*
X00173000D01*
X00181500Y00563000D02*
X00200500D01*
X00181500Y00573000D02*
X00200500D01*
Y00563000D02*
Y00573000D01*
X00181500Y00563000D02*
Y00573000D01*
X00217500Y00431500D02*
Y00446500D01*
X00190500Y00431500D02*
Y00446500D01*
Y00431500D02*
X00217500D01*
X00190500Y00446500D02*
X00217500D01*
X00017000Y00434500D02*
Y00449500D01*
X00044000Y00434500D02*
Y00449500D01*
X00017000D02*
X00044000D01*
X00017000Y00434500D02*
X00044000D01*
X00168000Y00249000D02*
X00202000D01*
X00168000Y00215000D02*
X00202000D01*
Y00249000D01*
X00168000Y00215000D02*
Y00249000D01*
X00167000Y00135000D02*
Y00169000D01*
X00201000Y00135000D02*
Y00169000D01*
X00167000D02*
X00201000D01*
X00167000Y00135000D02*
X00201000D01*
X00066000Y00218000D02*
X00100000D01*
X00066000Y00252000D02*
X00100000D01*
X00066000Y00218000D02*
Y00252000D01*
X00100000Y00218000D02*
Y00252000D01*
X00101000Y00136000D02*
Y00170000D01*
X00067000Y00136000D02*
Y00170000D01*
Y00136000D02*
X00101000D01*
X00067000Y00170000D02*
X00101000D01*
X00220000Y00451000D02*
Y00471000D01*
X00174000Y00451000D02*
Y00471000D01*
Y00452000D02*
X00220000D01*
X00174000Y00471000D02*
X00220000D01*
X00167000Y00451000D02*
Y00471000D01*
X00121000Y00451000D02*
Y00471000D01*
Y00452000D02*
X00167000D01*
X00121000Y00471000D02*
X00167000D01*
X00014000Y00451000D02*
Y00471000D01*
X00060000Y00451000D02*
Y00471000D01*
X00014000Y00470000D02*
X00060000D01*
X00014000Y00451000D02*
X00060000D01*
X00067000D02*
Y00471000D01*
X00113000Y00451000D02*
Y00471000D01*
X00067000Y00470000D02*
X00113000D01*
X00067000Y00451000D02*
X00113000D01*
X00155000Y00194000D02*
Y00214000D01*
X00201000Y00194000D02*
Y00214000D01*
X00155000Y00213000D02*
X00201000D01*
X00155000Y00194000D02*
X00201000D01*
X00201000Y00170000D02*
Y00190000D01*
X00155000Y00170000D02*
Y00190000D01*
Y00171000D02*
X00201000D01*
X00155000Y00190000D02*
X00201000D01*
X00115000Y00194000D02*
Y00214000D01*
X00069000Y00194000D02*
Y00214000D01*
Y00195000D02*
X00115000D01*
X00069000Y00214000D02*
X00115000D01*
X00069000Y00170000D02*
Y00190000D01*
X00115000Y00170000D02*
Y00190000D01*
X00069000Y00189000D02*
X00115000D01*
X00069000Y00170000D02*
X00115000D01*
X00165000Y00399500D02*
Y00418500D01*
X00155000Y00399500D02*
Y00418500D01*
X00165000D01*
X00155000Y00399500D02*
X00165000D01*
X00058000Y00401100D02*
Y00420100D01*
X00048000Y00401100D02*
Y00420100D01*
X00058000D01*
X00048000Y00401100D02*
X00058000D01*
X00186500Y00329500D02*
X00201500D01*
X00186500Y00302500D02*
X00201500D01*
Y00329500D01*
X00186500Y00302500D02*
Y00329500D01*
X00169500Y00302500D02*
X00184500D01*
X00169500Y00329500D02*
X00184500D01*
X00169500Y00302500D02*
Y00329500D01*
X00184500Y00302500D02*
Y00329500D01*
X00152500Y00302500D02*
X00167500D01*
X00152500Y00329500D02*
X00167500D01*
X00152500Y00302500D02*
Y00329500D01*
X00167500Y00302500D02*
Y00329500D01*
X00135500Y00302500D02*
X00150500D01*
X00135500Y00329500D02*
X00150500D01*
X00135500Y00302500D02*
Y00329500D01*
X00150500Y00302500D02*
Y00329500D01*
X00118500Y00302500D02*
X00133500D01*
X00118500Y00329500D02*
X00133500D01*
X00118500Y00302500D02*
Y00329500D01*
X00133500Y00302500D02*
Y00329500D01*
M02*
