M48
;Layer_Color=9474304
;FILE_FORMAT=4:4
METRIC,LZ
;TYPE=PLATED
T2F00S00C0.7112
T3F00S00C0.7620
;TYPE=NON_PLATED
T4F00S00C0.8000
%
T02
X001472Y000998
X00157Y00142
X00144Y00164
X0015Y00221
X00232Y00186
X00266Y00199
X00335Y002
X00335Y00159
X00323Y00133
Y00093
X0034Y0009
X00284
X00265
X00241Y00138
X0026Y00265
X00263Y00285
X00215Y00307
X00188Y0036
X00187Y00377
X00155Y00389
X00197Y00422
X00383Y00364
X00416
X00432Y00342
X0036Y00315
X00365Y00294
X00348Y00284
X00448Y00235
X00468Y00227
X00487Y00239
X00508Y00186
Y00168
X00131Y00143745
X0011Y00162
X00107Y00224
X00101Y00262
X00139Y00204
X0012Y0043
X0002Y0048
X00025Y00545
X00055Y00596
X00091Y00602
X00065Y0066
X00161Y00666
X00167Y00637
X00218Y00619954
X00255Y00638
X00242Y00688
X00226Y00679
X00183Y00711
X00275
X00379Y00681
X0038Y00663
X00403
X00457Y00677
X00427Y00711
X00426Y00602
X0035Y00604
X00346Y00638
X00215Y00564
X00211Y00481
T03
X00374Y00202
X00394
X00414
X00434
X00454
X00474
T04
X0027Y000604
X00336
M30
