G04*
G04 #@! TF.GenerationSoftware,Altium Limited,Altium Designer,21.8.1 (53)*
G04*
G04 Layer_Color=16711935*
%FSAX44Y44*%
%MOMM*%
G71*
G04*
G04 #@! TF.SameCoordinates,34400FFA-6FB8-4BC9-BD0D-8C69DA3767B6*
G04*
G04*
G04 #@! TF.FilePolarity,Negative*
G04*
G01*
G75*
%ADD37C,1.0032*%
%ADD38O,1.2032X2.2032*%
%ADD39R,1.7272X1.7272*%
%ADD40C,1.7272*%
%ADD41C,1.4732*%
D37*
X00336000Y00060400D02*
D03*
X00270000D02*
D03*
D38*
X00349100Y00066000D02*
D03*
X00256900D02*
D03*
X00349100Y00021000D02*
D03*
X00256900D02*
D03*
D39*
X00374000Y00202000D02*
D03*
D40*
X00394000D02*
D03*
X00414000D02*
D03*
X00434000D02*
D03*
X00454000D02*
D03*
X00474000D02*
D03*
D41*
X00468000Y00227000D02*
D03*
X00487000Y00239000D02*
D03*
X00508000Y00186000D02*
D03*
Y00168000D02*
D03*
X00448000Y00235000D02*
D03*
X00187000Y00377000D02*
D03*
X00188000Y00360000D02*
D03*
X00215000Y00307000D02*
D03*
X00101000Y00262000D02*
D03*
X00335000Y00159000D02*
D03*
X00260000Y00265000D02*
D03*
X00335000Y00200000D02*
D03*
X00263000Y00285000D02*
D03*
X00147200Y00099800D02*
D03*
X00241000Y00138000D02*
D03*
X00131000Y00143745D02*
D03*
X00110000Y00162000D02*
D03*
X00350000Y00604000D02*
D03*
X00383000Y00364000D02*
D03*
X00416000D02*
D03*
X00360000Y00315000D02*
D03*
X00432000Y00342000D02*
D03*
X00266000Y00199000D02*
D03*
X00365000Y00294000D02*
D03*
X00348000Y00284000D02*
D03*
X00232000Y00186000D02*
D03*
X00323000Y00093000D02*
D03*
X00218000Y00619954D02*
D03*
X00065000Y00660000D02*
D03*
X00025000Y00545000D02*
D03*
X00157000Y00142000D02*
D03*
X00139000Y00204000D02*
D03*
X00167000Y00637000D02*
D03*
X00091000Y00602000D02*
D03*
X00055000Y00596000D02*
D03*
X00215000Y00564000D02*
D03*
X00403000Y00663000D02*
D03*
X00379000Y00681000D02*
D03*
X00380000Y00663000D02*
D03*
X00275000Y00711000D02*
D03*
X00120000Y00430000D02*
D03*
X00457000Y00677000D02*
D03*
X00426000Y00602000D02*
D03*
X00427000Y00711000D02*
D03*
X00211000Y00481000D02*
D03*
X00020000Y00480000D02*
D03*
X00242000Y00688000D02*
D03*
X00226000Y00679000D02*
D03*
X00161000Y00666000D02*
D03*
X00183000Y00711000D02*
D03*
X00340000Y00090000D02*
D03*
X00284000D02*
D03*
X00155000Y00389000D02*
D03*
X00197000Y00422000D02*
D03*
X00255000Y00638000D02*
D03*
X00346000D02*
D03*
X00107000Y00224000D02*
D03*
X00144000Y00164000D02*
D03*
X00150000Y00221000D02*
D03*
X00323000Y00133000D02*
D03*
X00265000Y00090000D02*
D03*
M02*
