G04*
G04 #@! TF.GenerationSoftware,Altium Limited,Altium Designer,21.8.1 (53)*
G04*
G04 Layer_Color=16711935*
%FSAX44Y44*%
%MOMM*%
G71*
G04*
G04 #@! TF.SameCoordinates,34400FFA-6FB8-4BC9-BD0D-8C69DA3767B6*
G04*
G04*
G04 #@! TF.FilePolarity,Positive*
G04*
G01*
G75*
%ADD10C,0.2000*%
%ADD12C,0.1270*%
%ADD14C,0.2540*%
%ADD15C,0.0762*%
%ADD71C,0.0000*%
%ADD72C,0.1000*%
%ADD73C,0.0254*%
D10*
X00549000Y00146500D02*
G03*
X00549000Y00146500I-00001000J00000000D01*
G01*
X00272000Y00086000D02*
G03*
X00272000Y00086000I-00001000J00000000D01*
G01*
D12*
X00524000Y00150000D02*
X00540000D01*
Y00134000D02*
Y00150000D01*
X00524000Y00134000D02*
X00540000D01*
X00524000D02*
Y00150000D01*
D14*
X00359000Y-00011000D02*
Y-00002875D01*
X00363063D01*
X00364417Y-00004229D01*
Y-00006937D01*
X00363063Y-00008292D01*
X00359000D01*
X00372542Y-00004229D02*
X00371188Y-00002875D01*
X00368480D01*
X00367125Y-00004229D01*
Y-00009646D01*
X00368480Y-00011000D01*
X00371188D01*
X00372542Y-00009646D01*
X00375251Y-00002875D02*
Y-00011000D01*
X00379313D01*
X00380668Y-00009646D01*
Y-00008292D01*
X00379313Y-00006937D01*
X00375251D01*
X00379313D01*
X00380668Y-00005583D01*
Y-00004229D01*
X00379313Y-00002875D01*
X00375251D01*
X00396918D02*
X00391502D01*
Y-00011000D01*
X00396918D01*
X00391502Y-00006937D02*
X00394210D01*
X00399627Y-00002875D02*
Y-00011000D01*
X00403690D01*
X00405044Y-00009646D01*
Y-00004229D01*
X00403690Y-00002875D01*
X00399627D01*
X00413169Y-00004229D02*
X00411815Y-00002875D01*
X00409106D01*
X00407752Y-00004229D01*
Y-00009646D01*
X00409106Y-00011000D01*
X00411815D01*
X00413169Y-00009646D01*
Y-00006937D01*
X00410461D01*
X00421295Y-00002875D02*
X00415878D01*
Y-00011000D01*
X00421295D01*
X00415878Y-00006937D02*
X00418586D01*
D15*
X00442717Y00264862D02*
X00434253Y00273326D01*
X00442717D02*
X00434253Y00264862D01*
X00442717Y00269094D02*
X00434253D01*
X00438485Y00273326D02*
Y00264862D01*
D71*
X00424048Y00261980D02*
G03*
X00417952Y00261980I-00003048J00000000D01*
G01*
D72*
X00536000Y00181250D02*
Y00186750D01*
X00525500Y00181250D02*
Y00186750D01*
Y00181250D02*
X00536000D01*
X00525500Y00186750D02*
X00536000D01*
X00350350Y-00008000D02*
Y00000000D01*
X00255650Y-00008000D02*
X00350350D01*
X00255650D02*
Y00000000D01*
X00233000D02*
X00255650D01*
X00350350D02*
X00373000D01*
X00350350D02*
Y00072000D01*
X00255650D02*
X00350350D01*
X00255650Y00000000D02*
Y00072000D01*
Y00000000D02*
X00350350D01*
X00209250Y00673750D02*
Y00684250D01*
X00214750Y00673750D02*
Y00684250D01*
X00209250Y00673750D02*
X00214750D01*
X00209250Y00684250D02*
X00214750D01*
X00525750Y00197250D02*
X00536250D01*
X00525750Y00202750D02*
X00536250D01*
Y00197250D02*
Y00202750D01*
X00525750Y00197250D02*
Y00202750D01*
Y00170750D02*
X00536250D01*
X00525750Y00165250D02*
X00536250D01*
X00525750D02*
Y00170750D01*
X00536250Y00165250D02*
Y00170750D01*
X00297750Y00132250D02*
X00308250D01*
X00297750Y00137750D02*
X00308250D01*
Y00132250D02*
Y00137750D01*
X00297750Y00132250D02*
Y00137750D01*
X00310750Y00107750D02*
Y00118250D01*
X00305250Y00107750D02*
Y00118250D01*
X00310750D01*
X00305250Y00107750D02*
X00310750D01*
X00487750Y00293250D02*
Y00302750D01*
X00470250Y00293250D02*
Y00302750D01*
Y00293250D02*
X00487750D01*
X00470250Y00302750D02*
X00487750D01*
X00324000Y00246250D02*
Y00255750D01*
X00341500Y00246250D02*
Y00255750D01*
X00324000D02*
X00341500D01*
X00324000Y00246250D02*
X00341500D01*
Y00228250D02*
Y00237750D01*
X00324000Y00228250D02*
Y00237750D01*
Y00228250D02*
X00341500D01*
X00324000Y00237750D02*
X00341500D01*
X00281400Y00111850D02*
X00286600D01*
X00281400Y00122150D02*
X00286600D01*
X00281400Y00111850D02*
Y00122150D01*
X00286600Y00111850D02*
Y00122150D01*
X00384450Y00226400D02*
Y00231600D01*
X00394750Y00226400D02*
Y00231600D01*
X00384450D02*
X00394750D01*
X00384450Y00226400D02*
X00394750D01*
X00319400Y00107850D02*
X00324600D01*
X00319400Y00118150D02*
X00324600D01*
X00319400Y00107850D02*
Y00118150D01*
X00324600Y00107850D02*
Y00118150D01*
X00507600Y00297450D02*
Y00307750D01*
X00502400Y00297450D02*
Y00307750D01*
X00507600D01*
X00502400Y00297450D02*
X00507600D01*
X00500400Y00238850D02*
Y00249150D01*
X00505600Y00238850D02*
Y00249150D01*
X00500400Y00238850D02*
X00505600D01*
X00500400Y00249150D02*
X00505600D01*
X00552000Y00242000D02*
Y00294000D01*
X00518000Y00242000D02*
Y00294000D01*
X00552000D01*
X00518000Y00242000D02*
X00552000D01*
X00354250Y00555500D02*
X00359750D01*
X00354250Y00566000D02*
X00359750D01*
X00354250Y00555500D02*
Y00566000D01*
X00359750Y00555500D02*
Y00566000D01*
X00103000Y00678250D02*
Y00683750D01*
X00113500Y00678250D02*
Y00683750D01*
X00103000D02*
X00113500D01*
X00103000Y00678250D02*
X00113500D01*
X00116750Y00569250D02*
Y00574750D01*
X00127250Y00569250D02*
Y00574750D01*
X00116750D02*
X00127250D01*
X00116750Y00569250D02*
X00127250D01*
X00087750D02*
Y00574750D01*
X00098250Y00569250D02*
Y00574750D01*
X00087750D02*
X00098250D01*
X00087750Y00569250D02*
X00098250D01*
X00116000Y00584250D02*
Y00589750D01*
X00126500Y00584250D02*
Y00589750D01*
X00116000D02*
X00126500D01*
X00116000Y00584250D02*
X00126500D01*
X00268250Y00509750D02*
X00273750D01*
X00268250Y00520250D02*
X00273750D01*
X00268250Y00509750D02*
Y00520250D01*
X00273750Y00509750D02*
Y00520250D01*
X00283250Y00545750D02*
X00288750D01*
X00283250Y00556250D02*
X00288750D01*
X00283250Y00545750D02*
Y00556250D01*
X00288750Y00545750D02*
Y00556250D01*
X00283250Y00517000D02*
X00288750D01*
X00283250Y00527500D02*
X00288750D01*
X00283250Y00517000D02*
Y00527500D01*
X00288750Y00517000D02*
Y00527500D01*
X00283250Y00488000D02*
X00288750D01*
X00283250Y00498500D02*
X00288750D01*
X00283250Y00488000D02*
Y00498500D01*
X00288750Y00488000D02*
Y00498500D01*
X00283250Y00459000D02*
X00288750D01*
X00283250Y00469500D02*
X00288750D01*
X00283250Y00459000D02*
Y00469500D01*
X00288750Y00459000D02*
Y00469500D01*
X00464750Y00616250D02*
Y00621750D01*
X00475250Y00616250D02*
Y00621750D01*
X00464750D02*
X00475250D01*
X00464750Y00616250D02*
X00475250D01*
X00464750Y00588250D02*
Y00593750D01*
X00475250Y00588250D02*
Y00593750D01*
X00464750D02*
X00475250D01*
X00464750Y00588250D02*
X00475250D01*
X00185750Y00550250D02*
Y00555750D01*
X00196250Y00550250D02*
Y00555750D01*
X00185750D02*
X00196250D01*
X00185750Y00550250D02*
X00196250D01*
X00417250Y00565250D02*
Y00570750D01*
X00406750Y00565250D02*
Y00570750D01*
Y00565250D02*
X00417250D01*
X00406750Y00570750D02*
X00417250D01*
X00344750Y00506250D02*
Y00515750D01*
X00362250Y00506250D02*
Y00515750D01*
X00344750D02*
X00362250D01*
X00344750Y00506250D02*
X00362250D01*
X00357500Y00527250D02*
Y00532750D01*
X00347000Y00527250D02*
Y00532750D01*
Y00527250D02*
X00357500D01*
X00347000Y00532750D02*
X00357500D01*
X00236250Y00706250D02*
Y00715750D01*
X00253750Y00706250D02*
Y00715750D01*
X00236250D02*
X00253750D01*
X00236250Y00706250D02*
X00253750D01*
X00219250D02*
Y00715750D01*
X00201750Y00706250D02*
Y00715750D01*
Y00706250D02*
X00219250D01*
X00201750Y00715750D02*
X00219250D01*
X00129750Y00663250D02*
Y00668750D01*
X00140250Y00663250D02*
Y00668750D01*
X00129750D02*
X00140250D01*
X00129750Y00663250D02*
X00140250D01*
X00252250Y00665750D02*
X00257750D01*
X00252250Y00676250D02*
X00257750D01*
X00252250Y00665750D02*
Y00676250D01*
X00257750Y00665750D02*
Y00676250D01*
X00100750Y00663250D02*
Y00668750D01*
X00111250Y00663250D02*
Y00668750D01*
X00100750D02*
X00111250D01*
X00100750Y00663250D02*
X00111250D01*
X00058250Y00682750D02*
X00063750D01*
X00058250Y00693250D02*
X00063750D01*
X00058250Y00682750D02*
Y00693250D01*
X00063750Y00682750D02*
Y00693250D01*
X00043250Y00682750D02*
X00048750D01*
X00043250Y00693250D02*
X00048750D01*
X00043250Y00682750D02*
Y00693250D01*
X00048750Y00682750D02*
Y00693250D01*
X00024750Y00593250D02*
Y00598750D01*
X00035250Y00593250D02*
Y00598750D01*
X00024750D02*
X00035250D01*
X00024750Y00593250D02*
X00035250D01*
X00022250Y00572250D02*
X00027750D01*
X00022250Y00561750D02*
X00027750D01*
Y00572250D01*
X00022250Y00561750D02*
Y00572250D01*
X00474500Y00560250D02*
Y00565750D01*
X00464000Y00560250D02*
Y00565750D01*
Y00560250D02*
X00474500D01*
X00464000Y00565750D02*
X00474500D01*
X00464750Y00602250D02*
Y00607750D01*
X00475250Y00602250D02*
Y00607750D01*
X00464750D02*
X00475250D01*
X00464750Y00602250D02*
X00475250D01*
X00472250Y00676250D02*
X00477750D01*
X00472250Y00665750D02*
X00477750D01*
Y00676250D01*
X00472250Y00665750D02*
Y00676250D01*
X00355250Y00660250D02*
Y00665750D01*
X00344750Y00660250D02*
Y00665750D01*
Y00660250D02*
X00355250D01*
X00344750Y00665750D02*
X00355250D01*
X00422250Y00690750D02*
X00431750D01*
X00422250Y00673250D02*
X00431750D01*
Y00690750D01*
X00422250Y00673250D02*
Y00690750D01*
X00421750Y00656250D02*
X00431250D01*
X00421750Y00638750D02*
X00431250D01*
Y00656250D01*
X00421750Y00638750D02*
Y00656250D01*
X00372250Y00635250D02*
Y00640750D01*
X00361750Y00635250D02*
Y00640750D01*
Y00635250D02*
X00372250D01*
X00361750Y00640750D02*
X00372250D01*
X00400000Y00635250D02*
Y00640750D01*
X00389500Y00635250D02*
Y00640750D01*
Y00635250D02*
X00400000D01*
X00389500Y00640750D02*
X00400000D01*
X00407250Y00710250D02*
Y00715750D01*
X00396750Y00710250D02*
Y00715750D01*
Y00710250D02*
X00407250D01*
X00396750Y00715750D02*
X00407250D01*
X00209250Y00632250D02*
Y00641750D01*
X00226750Y00632250D02*
Y00641750D01*
X00209250D02*
X00226750D01*
X00209250Y00632250D02*
X00226750D01*
X00177250D02*
Y00641750D01*
X00194750Y00632250D02*
Y00641750D01*
X00177250D02*
X00194750D01*
X00177250Y00632250D02*
X00194750D01*
X00283250Y00430000D02*
X00288750D01*
X00283250Y00440500D02*
X00288750D01*
X00283250Y00430000D02*
Y00440500D01*
X00288750Y00430000D02*
Y00440500D01*
X00252250Y00552750D02*
X00257750D01*
X00252250Y00563250D02*
X00257750D01*
X00252250Y00552750D02*
Y00563250D01*
X00257750Y00552750D02*
Y00563250D01*
X00171250Y00516250D02*
Y00521750D01*
X00160750Y00516250D02*
Y00521750D01*
Y00516250D02*
X00171250D01*
X00160750Y00521750D02*
X00171250D01*
X00185750Y00579250D02*
Y00584750D01*
X00196250Y00579250D02*
Y00584750D01*
X00185750D02*
X00196250D01*
X00185750Y00579250D02*
X00196250D01*
X00224500Y00579250D02*
Y00584750D01*
X00214000Y00579250D02*
Y00584750D01*
Y00579250D02*
X00224500D01*
X00214000Y00584750D02*
X00224500D01*
X00216250Y00591500D02*
Y00608500D01*
X00187750Y00591500D02*
Y00608500D01*
Y00591500D02*
X00216250D01*
X00187750Y00608500D02*
X00216250D01*
X00076850Y00682600D02*
X00087150D01*
X00076850Y00677400D02*
X00087150D01*
X00076850D02*
Y00682600D01*
X00087150Y00677400D02*
Y00682600D01*
X00068400Y00586850D02*
Y00597150D01*
X00073600Y00586850D02*
Y00597150D01*
X00068400Y00586850D02*
X00073600D01*
X00068400Y00597150D02*
X00073600D01*
X00076850Y00693400D02*
X00087150D01*
X00076850Y00698600D02*
X00087150D01*
Y00693400D02*
Y00698600D01*
X00076850Y00693400D02*
Y00698600D01*
X00060850Y00569400D02*
X00071150D01*
X00060850Y00574600D02*
X00071150D01*
Y00569400D02*
Y00574600D01*
X00060850Y00569400D02*
Y00574600D01*
X00464850Y00579600D02*
X00475150D01*
X00464850Y00574400D02*
X00475150D01*
X00464850D02*
Y00579600D01*
X00475150Y00574400D02*
Y00579600D01*
X00440400Y00637850D02*
Y00648150D01*
X00445600Y00637850D02*
Y00648150D01*
X00440400Y00637850D02*
X00445600D01*
X00440400Y00648150D02*
X00445600D01*
X00319850Y00699400D02*
X00330150D01*
X00319850Y00704600D02*
X00330150D01*
Y00699400D02*
Y00704600D01*
X00319850Y00699400D02*
Y00704600D01*
X00185850Y00618400D02*
X00196150D01*
X00185850Y00623600D02*
X00196150D01*
Y00618400D02*
Y00623600D01*
X00185850Y00618400D02*
Y00623600D01*
X00275850Y00569400D02*
X00286150D01*
X00275850Y00574600D02*
X00286150D01*
Y00569400D02*
Y00574600D01*
X00275850Y00569400D02*
Y00574600D01*
X00198600Y00518850D02*
Y00529150D01*
X00193400Y00518850D02*
Y00529150D01*
X00198600D01*
X00193400Y00518850D02*
X00198600D01*
X00207400D02*
Y00529150D01*
X00212600Y00518850D02*
Y00529150D01*
X00207400Y00518850D02*
X00212600D01*
X00207400Y00529150D02*
X00212600D01*
X00165400Y00589850D02*
Y00600150D01*
X00170600Y00589850D02*
Y00600150D01*
X00165400Y00589850D02*
X00170600D01*
X00165400Y00600150D02*
X00170600D01*
X00185850Y00565400D02*
X00196150D01*
X00185850Y00570600D02*
X00196150D01*
Y00565400D02*
Y00570600D01*
X00185850Y00565400D02*
Y00570600D01*
X00144250Y00438250D02*
Y00443750D01*
X00133750Y00438250D02*
Y00443750D01*
Y00438250D02*
X00144250D01*
X00133750Y00443750D02*
X00144250D01*
X00212750Y00434250D02*
Y00443750D01*
X00195250Y00434250D02*
Y00443750D01*
Y00434250D02*
X00212750D01*
X00195250Y00443750D02*
X00212750D01*
X00157250Y00430750D02*
X00162750D01*
X00157250Y00441250D02*
X00162750D01*
X00157250Y00430750D02*
Y00441250D01*
X00162750Y00430750D02*
Y00441250D01*
X00021750Y00437250D02*
Y00446750D01*
X00039250Y00437250D02*
Y00446750D01*
X00021750D02*
X00039250D01*
X00021750Y00437250D02*
X00039250D01*
X00105250Y00439250D02*
Y00444750D01*
X00094750Y00439250D02*
Y00444750D01*
Y00439250D02*
X00105250D01*
X00094750Y00444750D02*
X00105250D01*
X00050250Y00442250D02*
X00055750D01*
X00050250Y00431750D02*
X00055750D01*
Y00442250D01*
X00050250Y00431750D02*
Y00442250D01*
X00171000Y00239000D02*
X00199000D01*
X00171000Y00225000D02*
X00199000D01*
Y00239000D01*
X00171000Y00225000D02*
Y00239000D01*
X00177000Y00138000D02*
Y00166000D01*
X00191000Y00138000D02*
Y00166000D01*
X00177000D02*
X00191000D01*
X00177000Y00138000D02*
X00191000D01*
X00069000Y00228000D02*
X00097000D01*
X00069000Y00242000D02*
X00097000D01*
X00069000Y00228000D02*
Y00242000D01*
X00097000Y00228000D02*
Y00242000D01*
X00091000Y00139000D02*
Y00167000D01*
X00077000Y00139000D02*
Y00167000D01*
Y00139000D02*
X00091000D01*
X00077000Y00167000D02*
X00091000D01*
X00211250Y00452500D02*
Y00469500D01*
X00182750Y00452500D02*
Y00469500D01*
Y00452500D02*
X00211250D01*
X00182750Y00469500D02*
X00211250D01*
X00158250Y00452500D02*
Y00469500D01*
X00129750Y00452500D02*
Y00469500D01*
Y00452500D02*
X00158250D01*
X00129750Y00469500D02*
X00158250D01*
X00022750Y00452500D02*
Y00469500D01*
X00051250Y00452500D02*
Y00469500D01*
X00022750D02*
X00051250D01*
X00022750Y00452500D02*
X00051250D01*
X00075750D02*
Y00469500D01*
X00104250Y00452500D02*
Y00469500D01*
X00075750D02*
X00104250D01*
X00075750Y00452500D02*
X00104250D01*
X00163750Y00195500D02*
Y00212500D01*
X00192250Y00195500D02*
Y00212500D01*
X00163750D02*
X00192250D01*
X00163750Y00195500D02*
X00192250D01*
X00192250Y00171500D02*
Y00188500D01*
X00163750Y00171500D02*
Y00188500D01*
Y00171500D02*
X00192250D01*
X00163750Y00188500D02*
X00192250D01*
X00106250Y00195500D02*
Y00212500D01*
X00077750Y00195500D02*
Y00212500D01*
Y00195500D02*
X00106250D01*
X00077750Y00212500D02*
X00106250D01*
X00077750Y00171500D02*
Y00188500D01*
X00106250Y00171500D02*
Y00188500D01*
X00077750D02*
X00106250D01*
X00077750Y00171500D02*
X00106250D01*
X00162600Y00403850D02*
Y00414150D01*
X00157400Y00403850D02*
Y00414150D01*
X00162600D01*
X00157400Y00403850D02*
X00162600D01*
X00055600Y00405450D02*
Y00415750D01*
X00050400Y00405450D02*
Y00415750D01*
X00055600D01*
X00050400Y00405450D02*
X00055600D01*
X00189250Y00324750D02*
X00198750D01*
X00189250Y00307250D02*
X00198750D01*
Y00324750D01*
X00189250Y00307250D02*
Y00324750D01*
X00172250Y00307250D02*
X00181750D01*
X00172250Y00324750D02*
X00181750D01*
X00172250Y00307250D02*
Y00324750D01*
X00181750Y00307250D02*
Y00324750D01*
X00155250Y00307250D02*
X00164750D01*
X00155250Y00324750D02*
X00164750D01*
X00155250Y00307250D02*
Y00324750D01*
X00164750Y00307250D02*
Y00324750D01*
X00138250Y00307250D02*
X00147750D01*
X00138250Y00324750D02*
X00147750D01*
X00138250Y00307250D02*
Y00324750D01*
X00147750Y00307250D02*
Y00324750D01*
X00121250Y00307250D02*
X00130750D01*
X00121250Y00324750D02*
X00130750D01*
X00121250Y00307250D02*
Y00324750D01*
X00130750Y00307250D02*
Y00324750D01*
D73*
X00443352Y00264226D02*
Y00267274D01*
Y00264226D02*
X00454020D01*
Y00267274D01*
X00443352D02*
X00454020D01*
X00443352Y00270726D02*
Y00273774D01*
Y00270726D02*
X00454020D01*
Y00273774D01*
X00443352D02*
X00454020D01*
X00443352Y00277226D02*
Y00280274D01*
Y00277226D02*
X00454020D01*
Y00280274D01*
X00443352D02*
X00454020D01*
X00443352Y00283726D02*
Y00286774D01*
Y00283726D02*
X00454020D01*
Y00286774D01*
X00443352D02*
X00454020D01*
X00443352Y00290226D02*
Y00293274D01*
Y00290226D02*
X00454020D01*
Y00293274D01*
X00443352D02*
X00454020D01*
X00443352Y00296726D02*
Y00299774D01*
Y00296726D02*
X00454020D01*
Y00299774D01*
X00443352D02*
X00454020D01*
X00443352Y00303226D02*
Y00306274D01*
Y00303226D02*
X00454020D01*
Y00306274D01*
X00443352D02*
X00454020D01*
X00443352Y00309726D02*
Y00312774D01*
Y00309726D02*
X00454020D01*
Y00312774D01*
X00443352D02*
X00454020D01*
X00443352Y00316226D02*
Y00319274D01*
Y00316226D02*
X00454020D01*
Y00319274D01*
X00443352D02*
X00454020D01*
X00443352Y00322726D02*
Y00325774D01*
Y00322726D02*
X00454020D01*
Y00325774D01*
X00443352D02*
X00454020D01*
X00398648Y00322726D02*
Y00325774D01*
X00387980D02*
X00398648D01*
X00387980Y00322726D02*
Y00325774D01*
Y00322726D02*
X00398648D01*
Y00316226D02*
Y00319274D01*
X00387980D02*
X00398648D01*
X00387980Y00316226D02*
Y00319274D01*
Y00316226D02*
X00398648D01*
Y00309726D02*
Y00312774D01*
X00387980D02*
X00398648D01*
X00387980Y00309726D02*
Y00312774D01*
Y00309726D02*
X00398648D01*
Y00303226D02*
Y00306274D01*
X00387980D02*
X00398648D01*
X00387980Y00303226D02*
Y00306274D01*
Y00303226D02*
X00398648D01*
Y00296726D02*
Y00299774D01*
X00387980D02*
X00398648D01*
X00387980Y00296726D02*
Y00299774D01*
Y00296726D02*
X00398648D01*
Y00290226D02*
Y00293274D01*
X00387980D02*
X00398648D01*
X00387980Y00290226D02*
Y00293274D01*
Y00290226D02*
X00398648D01*
Y00283726D02*
Y00286774D01*
X00387980D02*
X00398648D01*
X00387980Y00283726D02*
Y00286774D01*
Y00283726D02*
X00398648D01*
Y00277226D02*
Y00280274D01*
X00387980D02*
X00398648D01*
X00387980Y00277226D02*
Y00280274D01*
Y00277226D02*
X00398648D01*
Y00270726D02*
Y00273774D01*
X00387980D02*
X00398648D01*
X00387980Y00270726D02*
Y00273774D01*
Y00270726D02*
X00398648D01*
Y00264226D02*
Y00267274D01*
X00387980D02*
X00398648D01*
X00387980Y00264226D02*
Y00267274D01*
Y00264226D02*
X00398648D01*
Y00328020D02*
X00443352D01*
X00398648Y00261980D02*
Y00328020D01*
Y00261980D02*
X00443352D01*
Y00328020D01*
M02*
